M48
; DRILL file {tscircuit} date 2026-10-09T22:23:59.667Z
; FORMAT={-:-/ absolute / metric / decimal}
; #@! TF.CreationDate,2026-10-09T22:23:59.667Z
; #@! TF.GenerationSoftware,tscircuit
; #@! TF.FileFunction,Plated,1,4,PTH
FMAT,2
METRIC
; #@! TA.AperFunction,Plated,PTH,ComponentDrill
T10C0.250000
; #@! TA.AperFunction,Plated,PTH,ComponentDrill
T11C0.200000
; #@! TA.AperFunction,Plated,PTH,ComponentDrill
T12C0.799998
; #@! TA.AperFunction,Plated,PTH,ComponentDrill
T13C0.750000
%
G90
G05
T10
X11.2115Y-2.7000
X-1.6591Y4.8885
X-9.2618Y2.9360
X-8.5282Y5.7085
X-2.3525Y1.6876
X-11.1285Y-8.6497
X7.2175Y6.3817
X3.7665Y6.3726
X11.8847Y-6.0000
X10.5278Y3.6466
X-6.5759Y4.1851
X1.9877Y-2.1295
X-14.2892Y6.1793
X-12.5466Y0.6538
X13.4349Y-9.0638
X3.8615Y-2.4709
X4.3385Y2.5837
X-0.4711Y5.8072
X9.6466Y6.9799
X13.8693Y-0.8090
X0.0197Y3.1916
X8.9876Y3.8895
X1.0836Y2.4065
X-4.2420Y5.4582
X2.1205Y6.9362
X2.1205Y2.5838
X2.5699Y2.0111
X-6.1628Y7.1205
X5.9970Y2.2571
X10.2277Y1.1511
X9.4430Y-3.2612
X5.7695Y0.4123
X5.9979Y1.0699
X9.2706Y-1.2584
X9.9981Y-6.1051
X5.8257Y-1.9327
X16.0443Y-3.2895
X10.0650Y-5.1509
X5.9815Y-1.2630
X6.7342Y-3.6055
X9.9983Y-6.8696
X3.1627Y-2.4752
X8.2813Y-7.0328
X1.1384Y-1.5382
X1.0978Y-0.1175
X15.0343Y4.6838
X15.0343Y-0.2043
X9.5839Y-2.0310
X11.0000Y-8.2293
X-6.7220Y-2.8830
X-12.6999Y5.7000
X3.4000Y0.0001
X-0.7001Y-8.8499
X-0.9249Y0.0999
X-7.2750Y-4.1999
X-6.1000Y-12.6250
X-7.2000Y-3.4250
X-5.3500Y-2.7750
X5.3750Y-0.9250
X5.2000Y2.3750
X3.5549Y-6.1250
X11.7250Y-1.5250
X10.0250Y-8.3000
X15.0250Y5.7500
X15.6750Y4.8750
X-2.4750Y0.3750
X-0.8750Y1.0500
X1.4250Y1.2250
X0.9750Y0.5500
X-8.6250Y9.3000
X-4.3250Y9.3000
X6.8750Y11.4500
X11.0500Y9.4750
X-0.7500Y12.1250
X12.4500Y7.3250
X9.1000Y11.4500
X4.9000Y11.4500
X-4.9500Y11.4500
X-1.0000Y7.4750
X-13.1500Y16.4750
X14.4750Y7.4000
X4.8250Y8.9750
X6.3500Y8.7500
X-1.0000Y8.3250
X2.7117Y6.5135
X14.3500Y-6.8500
X12.5000Y-4.6500
X13.7500Y-2.7750
X9.2750Y5.7250
X10.2750Y7.2250
X4.3000Y7.8201
X6.6250Y12.5000
X-1.0000Y9.4250
X-0.1997Y-5.6480
X-1.2005Y-5.6480
X2.7000Y-6.8000
X-3.7500Y-6.4000
X-3.4000Y-12.5500
X-5.5250Y-13.5500
X1.3750Y-11.3500
X2.9000Y-9.3500
X1.3750Y-12.2000
X-6.0000Y-14.1250
X7.5000Y-9.2750
X2.5250Y-5.6000
X-5.3500Y-11.4000
X-1.9750Y-12.1750
X1.3750Y-13.0250
X2.5250Y-12.1000
X1.8000Y-5.7000
X-2.8000Y-5.9000
X-4.6500Y-7.9000
X0.5000Y-5.5000
X-1.8600Y-5.6050
X-3.6000Y-5.4500
X-3.9000Y-7.8700
X2.9000Y-10.1000
X7.5000Y-14.7250
X-0.7000Y-12.2250
X-5.5250Y-10.3500
X6.8500Y-14.5250
X-10.8000Y13.6000
X-16.6500Y15.5250
X2.8000Y-4.1500
X3.7500Y-7.0750
X6.0500Y-7.3000
X8.3250Y-8.4750
X-2.3250Y-2.9500
X-3.4000Y-1.8750
X-3.2500Y0.1750
X-1.8250Y-4.0000
T11
X1.0000Y-0.9000
X-1.1500Y-3.9451
X2.6000Y-8.1000
X0.5000Y-4.8000
T12
X-11.3251Y15.5241
G85X-11.325Y15.124
X-11.3251Y11.4943
G85X-11.325Y10.794
X-2.6749Y11.4943
G85X-2.675Y10.794
X-2.6749Y15.5241
G85X-2.675Y15.124
X2.6749Y15.5241
G85X2.675Y15.124
X2.6749Y11.4943
G85X2.675Y10.794
X11.3251Y11.4943
G85X11.325Y10.794
X11.3251Y15.5241
G85X11.325Y15.124
T13
X-1.3000Y-14.1000
X0.7000Y-14.1000
X2.7000Y-14.1000
X4.7000Y-14.1000
M30