M48
; DRILL file {tscircuit} date 2026-10-08T22:04:26.743Z
; FORMAT={-:-/ absolute / metric / decimal}
; #@! TF.CreationDate,2026-10-08T22:04:26.743Z
; #@! TF.GenerationSoftware,tscircuit
; #@! TF.FileFunction,Plated,1,4,PTH
FMAT,2
METRIC
; #@! TA.AperFunction,Plated,PTH,ComponentDrill
T10C0.799998
; #@! TA.AperFunction,Plated,PTH,ComponentDrill
T11C0.900000
; #@! TA.AperFunction,Plated,PTH,ComponentDrill
T12C0.250000
; #@! TA.AperFunction,Plated,PTH,ComponentDrill
T13C0.200000
%
G90
G05
T10
X-9.6251Y15.1241
G85X-9.625Y14.724
X-9.6251Y11.0943
G85X-9.625Y10.394
X-0.9749Y11.0943
G85X-0.975Y10.394
X-0.9749Y15.1241
G85X-0.975Y14.724
X0.9749Y15.1241
G85X0.975Y14.724
X0.9749Y11.0943
G85X0.975Y10.394
X9.6251Y11.0943
G85X9.625Y10.394
X9.6251Y15.1241
G85X9.625Y14.724
T11
X-3.0000Y-16.0000
X-1.0000Y-16.0000
X1.0000Y-16.0000
X3.0000Y-16.0000
T12
X-1.7504Y-4.2880
X16.6200Y15.2398
X14.1328Y16.3977
X-4.4555Y-5.5973
X11.2115Y-2.7000
X9.5081Y7.8201
X-1.6591Y4.8885
X-3.9312Y8.8993
X-9.2618Y2.9360
X-5.7822Y8.9091
X-8.5282Y5.7085
X-16.2083Y15.5378
X-2.9000Y8.8979
X-2.3525Y1.6876
X-11.1285Y-8.6497
X-3.2456Y-8.3864
X7.2175Y6.3817
X6.4473Y11.0343
X3.7665Y6.3726
X4.4757Y11.0452
X4.3107Y12.0873
X7.3943Y11.1000
X11.8847Y-6.0000
X10.5278Y3.6466
X-6.5759Y4.1851
X1.9877Y-2.1295
X-14.2892Y6.1793
X-12.5466Y0.6538
X13.4349Y-9.0638
X3.8615Y-2.4709
X4.3385Y2.5837
X8.1808Y-13.6929
X-0.4711Y7.4672
X-0.4711Y5.8072
X9.6466Y6.9799
X13.8693Y-0.8090
X0.0208Y8.5886
X0.0197Y3.1916
X8.9876Y3.8895
X1.0836Y2.4065
X-4.2420Y5.4582
X2.1205Y6.9362
X2.1205Y2.5838
X2.5699Y2.0111
X-6.1628Y7.1205
X5.9970Y2.2571
X10.2277Y1.1511
X9.4430Y-3.2612
X5.7695Y0.4123
X5.9979Y1.0699
X9.2706Y-1.2584
X9.9981Y-6.1051
X5.8257Y-1.9327
X16.0443Y-3.2895
X10.0650Y-5.1509
X5.9815Y-1.2630
X6.7342Y-3.6055
X9.9983Y-6.8696
X3.1627Y-2.4752
X8.2813Y-7.0328
X0.8141Y-4.2582
X1.5500Y-7.2332
X3.5452Y-14.3817
X1.1384Y-1.5382
X-16.7741Y2.9360
X1.0978Y-0.1175
X4.1932Y-11.9360
X15.0343Y4.6838
X15.0343Y-0.2043
X9.5839Y-2.0310
X5.8254Y16.4000
X11.0000Y-8.2293
X-6.7220Y-2.8830
X-12.6999Y5.7000
X3.4000Y0.0001
X-0.7001Y-11.1999
X-0.1997Y-7.8000
X-1.2005Y-7.8000
X2.4000Y-9.1987
X-4.1000Y-9.6987
X1.0500Y-7.8000
X4.7000Y-9.3500
X-0.9249Y0.0999
X3.6000Y-11.2995
X-7.2750Y-4.1999
X5.4250Y-9.5000
X-0.0749Y-3.9999
X5.3000Y8.5049
X-6.1000Y-12.6250
X-7.2000Y-3.4250
X-5.3500Y-2.7750
X3.4750Y-4.2750
X0.0982Y-4.9000
X-5.2500Y-9.1741
X-3.6750Y-7.6250
X5.3750Y-0.9250
X5.2000Y2.3750
X5.2250Y-11.5500
X1.3500Y-9.1500
X3.5549Y-6.1250
X11.7250Y-1.5250
X10.0250Y-8.3000
X12.1250Y8.3750
X15.0250Y5.7500
X15.6750Y4.8750
X14.4750Y7.3750
X-2.4750Y0.3750
X-0.8750Y1.0500
X1.4250Y1.2250
T13
X2.5750Y-11.4503
X1.0000Y-0.9000
X-1.1500Y-3.9451
M30