%TF.GenerationSoftware,tscircuit,circuit-json-to-gerber,0.0.111*%
%TF.CreationDate,2026-10-10T01:14:51.756Z*%
%TF.SameCoordinates,Original*%
%TF.FileFunction,Other,Fab,Top*%
%TF.FilePolarity,Positive*%
%FSLAX46Y46*%
%MOMM*%
G04 Gerber Fmt 4.6, Leading zero omitted, Abs format (unit mm)*
G04 Created by tscircuit (builder) date 2026-10-10T01:14:51.756Z*
G01*
%LPD*%
G75*
G04 APERTURE MACROS START*
%AMHORZPILL*
0 Horizontal pill (stadium) shape macro*
0 Parameters:*
0 $1 = Total width*
0 $2 = Total height*
0 $3 = Circle diameter (equal to height)*
0 $4 = Circle center offset
0 21 = Center Line(Exposure, Width, Height, Center X, Center Y, Rotation)*
0 1 = Circle(Exposure, Diameter, Center X, Center Y, Rotation)*
21,1,$1-$3,$2,0.0,0.0,0.0*
1,1,$3,0.0-$4,0.0*
1,1,$3,$4,0.0*%
%AMVERTPILL*
0 Vertical pill (stadium) shape macro*
0 Parameters:*
0 $1 = Total width*
0 $2 = Total height*
0 $3 = Circle diameter (equal to width)*
0 $4 = Circle center offset
0 21 = Center Line(Exposure, Width, Height, Center X, Center Y, Rotation)*
21,1,$1,$2-$3,0.0,0.0,0.0*
1,1,$3,0.0,0.0-$4*
1,1,$3,0.0,$4*%
%AMROUNDRECT*
0 Rectangle with rounded corners*
0 $1 Corner radius*
0 $2 $3 $4 $5 $6 $7 $8 $9 X,Y Position of each corner*
0 Polygon box body*
4,1,4,$2,$3,$4,$5,$6,$7,$8,$9,$2,$3,0*
0 Circles for rounded corners*
1,1,$1+$1,$2,$3*
1,1,$1+$1,$4,$5*
1,1,$1+$1,$6,$7*
1,1,$1+$1,$8,$9*
0 Rectangles between the rounded corners*
20,1,$1+$1,$2,$3,$4,$5,0*
20,1,$1+$1,$4,$5,$6,$7,0*
20,1,$1+$1,$6,$7,$8,$9,0*
20,1,$1+$1,$8,$9,$2,$3,0*%
G04 APERTURE MACROS END*
G04 aperture START LIST*
%ADD10C,0.160000*%
%ADD11C,0.450000*%
%ADD12C,0.293000*%
%ADD13C,0.381000*%
%ADD14C,0.199000*%
%ADD15C,0.180000*%
%ADD16C,0.398000*%
%ADD17C,0.308000*%
%ADD18C,0.204000*%
%ADD19C,0.435000*%
%ADD20C,0.444000*%
%ADD21C,0.305000*%
%ADD22C,0.302000*%
%ADD23C,0.253000*%
%ADD24C,0.300000*%
%ADD25C,0.200000*%
%ADD26C,0.299000*%
%ADD27C,0.214000*%
%ADD28C,0.298000*%
%ADD29C,0.247000*%
%ADD30C,0.184000*%
%ADD31C,0.242000*%
%ADD32C,0.172000*%
%ADD33C,0.241000*%
%ADD34C,0.255000*%
%ADD35C,0.230000*%
%ADD36C,0.179000*%
%ADD37C,0.240000*%
%ADD38C,0.348000*%
%ADD39C,0.600000*%
%ADD40C,0.254000*%
%ADD41C,0.080000*%
%TD*%
G04 aperture END LIST*
D40*
X-02810061Y002812014D02*
X-01968102Y002812014D01*
X-01968102Y002605055D01*
X-02810670Y002605055D01*
X-02810061Y002812014D01*
D40*
X-02475390Y002261596D02*
X-02475390Y003103555D01*
X-02268431Y003103555D01*
X-02268431Y002260986D01*
X-02475390Y002261596D01*
D40*
X-06041525Y002723774D02*
X-05199566Y002723774D01*
X-05199566Y002516815D01*
X-06042135Y002516815D01*
X-06041525Y002723774D01*
D40*
X-04399999Y002600000D02*
X-04399999Y002600000D01*
X-03800000Y002000001D01*
X-03800000Y003199999D01*
X-04399999Y002600000D01*
D40*
X010787986Y-06510061D02*
X010787986Y-05668102D01*
X010994945Y-05668102D01*
X010994945Y-06510670D01*
X010787986Y-06510061D01*
D40*
X011338404Y-06175390D02*
X010496445Y-06175390D01*
X010496445Y-05968431D01*
X011339014Y-05968431D01*
X011338404Y-06175390D01*
D40*
X010876226Y-09741525D02*
X010876226Y-08899566D01*
X011083185Y-08899566D01*
X011083185Y-09742135D01*
X010876226Y-09741525D01*
D40*
X011000000Y-08099999D02*
X011000000Y-08099999D01*
X011599999Y-07500000D01*
X010400001Y-07500000D01*
X011000000Y-08099999D01*
D40*
X-14409968Y-08405024D02*
X-13089981Y-08405024D01*
X-13089981Y-08207031D01*
X-14409968Y-08207031D01*
X-14409968Y-08405024D01*
D40*
X-13848984Y-08702026D02*
X-13650965Y-08702026D01*
X-13650965Y-07910028D01*
X-13848984Y-07910028D01*
X-13848984Y-08702026D01*
D40*
X-13848984Y-02498025D02*
X-13650965Y-02498025D01*
X-13650965Y-03290022D01*
X-13848984Y-03290022D01*
X-13848984Y-02498025D01*
D40*
X-14850898Y001165000D02*
X-14850898Y002445008D01*
X-14658900Y002445008D01*
X-14658900Y001165000D01*
X-14850898Y001165000D01*
D40*
X-15104898Y001673000D02*
X-15104898Y001865024D01*
X-14336904Y001865024D01*
X-14336904Y001673000D01*
X-15104898Y001673000D01*
D40*
X-11294898Y001673000D02*
X-11294898Y001865024D01*
X-12062893Y001865024D01*
X-12062893Y001673000D01*
X-11294898Y001673000D01*
D41*
X-13750000Y-07235024D02*
X-13750000Y-06635024D01*
D41*
X-13450000Y-06935024D02*
X-14050000Y-06935024D01*
D41*
X-13750000Y-04564976D02*
X-13750000Y-03964976D01*
M02*