G04 Explicit reviewed solder-paste apertures mm*
%FSLAX46Y46*%
%MOMM*%
%LPD*%
%ADD10C,0.001*%
D10*
G01*
%LPD*%
G36*
X-8756496Y-15027496D02*
X-8756496Y-15972504D01*
X-9743500Y-15972504D01*
X-9743500Y-15027496D01*
X-8756496Y-15027496D01*
G37*
%LPD*%
G36*
X-6756500Y-15972504D02*
X-7743504Y-15972504D01*
X-7743504Y-15027496D01*
X-6756500Y-15027496D01*
X-6756500Y-15972504D01*
G37*
%LPD*%
G36*
X-5820025Y-13814999D02*
X-6380023Y-13814999D01*
X-6380023Y-13185001D01*
X-5820025Y-13185001D01*
X-5820025Y-13814999D01*
G37*
%LPD*%
G36*
X-6406500Y-11872504D02*
X-7393504Y-11872504D01*
X-7393504Y-10927496D01*
X-6406500Y-10927496D01*
X-6406500Y-11872504D01*
G37*
%LPD*%
G36*
X-8406496Y-11872504D02*
X-9393500Y-11872504D01*
X-9393500Y-10927496D01*
X-8406496Y-10927496D01*
X-8406496Y-11872504D01*
G37*
%LPD*%
G36*
X-13330001Y-9495046D02*
X-14169999Y-9495046D01*
X-14169999Y-7045050D01*
X-13330001Y-7045050D01*
X-13330001Y-9495046D01*
G37*
%LPD*%
G36*
X-5909953Y-8869997D02*
X-6889951Y-8869997D01*
X-6889951Y-5930003D01*
X-5909953Y-5930003D01*
X-5909953Y-8869997D01*
G37*
%LPD*%
G36*
X-8710049Y-8869997D02*
X-9690047Y-8869997D01*
X-9690047Y-5930003D01*
X-8710049Y-5930003D01*
X-8710049Y-8869997D01*
G37*
%LPD*%
G36*
X-6357456Y-4584895D02*
X-6742464Y-4584895D01*
X-6742464Y-3814897D01*
X-6357456Y-3814897D01*
X-6357456Y-4584895D01*
G37*
%LPD*%
G36*
X-5407496Y-4584895D02*
X-5792504Y-4584895D01*
X-5792504Y-3814897D01*
X-5407496Y-3814897D01*
X-5407496Y-4584895D01*
G37*
%LPD*%
G36*
X-13330001Y-4154950D02*
X-14169999Y-4154950D01*
X-14169999Y-1704954D01*
X-13330001Y-1704954D01*
X-13330001Y-4154950D01*
G37*
%LPD*%
G36*
X-6357456Y-2185103D02*
X-6742464Y-2185103D01*
X-6742464Y-1415105D01*
X-6357456Y-1415105D01*
X-6357456Y-2185103D01*
G37*
%LPD*%
G36*
X-5407496Y-2185103D02*
X-5792504Y-2185103D01*
X-5792504Y-1415105D01*
X-5407496Y-1415105D01*
X-5407496Y-2185103D01*
G37*
%LPD*%
G36*
X-12264370Y-502402D02*
X-12828902Y-502402D01*
X-12828902Y102402D01*
X-12264370Y102402D01*
X-12264370Y-502402D01*
G37*
%LPD*%
G36*
X-10920025Y-514999D02*
X-11480023Y-514999D01*
X-11480023Y114999D01*
X-10920025Y114999D01*
X-10920025Y-514999D01*
G37*
%LPD*%
G36*
X-9519977Y114999D02*
X-9519977Y-514999D01*
X-10079975Y-514999D01*
X-10079975Y114999D01*
X-9519977Y114999D01*
G37*
%LPD*%
G36*
X-13771098Y-502402D02*
X-14335630Y-502402D01*
X-14335630Y102402D01*
X-13771098Y102402D01*
X-13771098Y-502402D01*
G37*
%LPD*%
G36*
X-7472826Y-454796D02*
X-8512334Y-454796D01*
X-8512334Y754796D01*
X-7472826Y754796D01*
X-7472826Y-454796D01*
G37*
%LPD*%
G36*
X-11095017Y1380001D02*
X-12005015Y1380001D01*
X-12005015Y2219999D01*
X-11095017Y2219999D01*
X-11095017Y1380001D01*
G37*
%LPD*%
G36*
X-14394985Y1380001D02*
X-15304983Y1380001D01*
X-15304983Y2219999D01*
X-14394985Y2219999D01*
X-14394985Y1380001D01*
G37*
%LPD*%
G36*
X-5280023Y2267496D02*
X-6120021Y2267496D01*
X-6120021Y2932504D01*
X-5280023Y2932504D01*
X-5280023Y2267496D01*
G37*
%LPD*%
G36*
X-7597598Y3064370D02*
X-8202402Y3064370D01*
X-8202402Y3628902D01*
X-7597598Y3628902D01*
X-7597598Y3064370D01*
G37*
%LPD*%
G36*
X-9175134Y3490004D02*
X-10225132Y3490004D01*
X-10225132Y3910004D01*
X-9175134Y3910004D01*
X-9175134Y3490004D01*
G37*
%LPD*%
G36*
X-15175122Y3490004D02*
X-16225120Y3490004D01*
X-16225120Y3910004D01*
X-15175122Y3910004D01*
X-15175122Y3490004D01*
G37*
%LPD*%
G36*
X-9174880Y4490002D02*
X-10224878Y4490002D01*
X-10224878Y4910002D01*
X-9174880Y4910002D01*
X-9174880Y4490002D01*
G37*
%LPD*%
G36*
X-15175122Y4490002D02*
X-16225120Y4490002D01*
X-16225120Y4910002D01*
X-15175122Y4910002D01*
X-15175122Y4490002D01*
G37*
%LPD*%
G36*
X-7597598Y4571098D02*
X-8202402Y4571098D01*
X-8202402Y5135630D01*
X-7597598Y5135630D01*
X-7597598Y4571098D01*
G37*
%LPD*%
G36*
X-12799873Y4321918D02*
X-13613198Y4321918D01*
X-13613198Y5600000D01*
X-12799873Y5600000D01*
X-12799873Y4321918D01*
G37*
%LPD*%
G36*
X-11786548Y4321918D02*
X-12599873Y4321918D01*
X-12599873Y5600000D01*
X-11786548Y5600000D01*
X-11786548Y4321918D01*
G37*
%LPD*%
G36*
X-9174880Y5490000D02*
X-10224878Y5490000D01*
X-10224878Y5910000D01*
X-9174880Y5910000D01*
X-9174880Y5490000D01*
G37*
%LPD*%
G36*
X-15175122Y5910000D02*
X-15175122Y5490000D01*
X-16225120Y5490000D01*
X-16225120Y5910000D01*
X-15175122Y5910000D01*
G37*
%LPD*%
G36*
X-11786548Y5800000D02*
X-12599873Y5800000D01*
X-12599873Y7078082D01*
X-11786548Y7078082D01*
X-11786548Y5800000D01*
G37*
%LPD*%
G36*
X-12799873Y5800000D02*
X-13613198Y5800000D01*
X-13613198Y7078082D01*
X-12799873Y7078082D01*
X-12799873Y5800000D01*
G37*
%LPD*%
G36*
X-9174880Y6489998D02*
X-10224878Y6489998D01*
X-10224878Y6909998D01*
X-9174880Y6909998D01*
X-9174880Y6489998D01*
G37*
%LPD*%
G36*
X-15175122Y6489998D02*
X-16225120Y6489998D01*
X-16225120Y6909998D01*
X-15175122Y6909998D01*
X-15175122Y6489998D01*
G37*
%LPD*%
G36*
X-9175134Y7489996D02*
X-10225132Y7489996D01*
X-10225132Y7909996D01*
X-9175134Y7909996D01*
X-9175134Y7489996D01*
G37*
%LPD*%
G36*
X-15175122Y7489996D02*
X-16225120Y7489996D01*
X-16225120Y7909996D01*
X-15175122Y7909996D01*
X-15175122Y7489996D01*
G37*
%LPD*%
G36*
X-6404884Y7810999D02*
X-6754884Y7810999D01*
X-6754884Y8189001D01*
X-6404884Y8189001D01*
X-6404884Y7810999D01*
G37*
%LPD*%
G36*
X-7245116Y7810999D02*
X-7595116Y7810999D01*
X-7595116Y8189001D01*
X-7245116Y8189001D01*
X-7245116Y7810999D01*
G37*
%LPD*%
G36*
X-9610169Y10830817D02*
X-9400169Y10830817D01*
X-9400151Y10830817D01*
X-9190152Y10830817D01*
X-9190152Y9920836D01*
X-9400151Y9920836D01*
X-9400169Y9920836D01*
X-9610169Y9920836D01*
X-9610169Y10830817D01*
G37*
%LPD*%
G36*
X-9989998Y9920836D02*
X-10199997Y9920836D01*
X-10200015Y9920836D01*
X-10410015Y9920836D01*
X-10410015Y10830817D01*
X-10200015Y10830817D01*
X-10199997Y10830817D01*
X-9989998Y10830817D01*
X-9989998Y9920836D01*
G37*
%LPD*%
G36*
X-5645066Y9920929D02*
X-5855066Y9920929D01*
X-5855066Y10830927D01*
X-5645066Y10830927D01*
X-5645066Y9920929D01*
G37*
%LPD*%
G36*
X-6144938Y9920929D02*
X-6354938Y9920929D01*
X-6354938Y10830927D01*
X-6144938Y10830927D01*
X-6144938Y9920929D01*
G37*
%LPD*%
G36*
X-7144936Y9920929D02*
X-7354936Y9920929D01*
X-7354936Y10830927D01*
X-7144936Y10830927D01*
X-7144936Y9920929D01*
G37*
%LPD*%
G36*
X-6645064Y9920929D02*
X-6855064Y9920929D01*
X-6855064Y10830927D01*
X-6645064Y10830927D01*
X-6645064Y9920929D01*
G37*
%LPD*%
G36*
X-7645062Y9920929D02*
X-7855062Y9920929D01*
X-7855062Y10830927D01*
X-7645062Y10830927D01*
X-7645062Y9920929D01*
G37*
%LPD*%
G36*
X-8144680Y9920929D02*
X-8354680Y9920929D01*
X-8354680Y10830927D01*
X-8144680Y10830927D01*
X-8144680Y9920929D01*
G37*
%LPD*%
G36*
X-8645060Y9920929D02*
X-8855060Y9920929D01*
X-8855060Y10830927D01*
X-8645060Y10830927D01*
X-8645060Y9920929D01*
G37*
%LPD*%
G36*
X-14864370Y16097598D02*
X-15428902Y16097598D01*
X-15428902Y16702402D01*
X-14864370Y16702402D01*
X-14864370Y16097598D01*
G37*
%LPD*%
G36*
X-16371098Y16097598D02*
X-16935630Y16097598D01*
X-16935630Y16702402D01*
X-16371098Y16702402D01*
X-16371098Y16097598D01*
G37*
%LPD*%
G36*
X-4785001Y-16780023D02*
X-5414999Y-16780023D01*
X-5414999Y-16220025D01*
X-4785001Y-16220025D01*
X-4785001Y-16780023D01*
G37*
%LPD*%
G36*
X-4785001Y-15379975D02*
X-5414999Y-15379975D01*
X-5414999Y-14819977D01*
X-4785001Y-14819977D01*
X-4785001Y-15379975D01*
G37*
%LPD*%
G36*
X-4419977Y-13814999D02*
X-4979975Y-13814999D01*
X-4979975Y-13185001D01*
X-4419977Y-13185001D01*
X-4419977Y-13814999D01*
G37*
%LPD*%
G36*
X-4785001Y-12380023D02*
X-5414999Y-12380023D01*
X-5414999Y-11820025D01*
X-4785001Y-11820025D01*
X-4785001Y-12380023D01*
G37*
%LPD*%
G36*
X-800127Y-12539225D02*
X-2039479Y-12539225D01*
X-2039479Y-11299873D01*
X-800127Y-11299873D01*
X-800127Y-12539225D01*
G37*
%LPD*%
G36*
X-4785001Y-10979975D02*
X-5414999Y-10979975D01*
X-5414999Y-10419977D01*
X-4785001Y-10419977D01*
X-4785001Y-10979975D01*
G37*
%LPD*%
G36*
X-800127Y-11099873D02*
X-2039479Y-11099873D01*
X-2039479Y-9860521D01*
X-800127Y-9860521D01*
X-800127Y-11099873D01*
G37*
%LPD*%
G36*
X-4385001Y-8080023D02*
X-5014999Y-8080023D01*
X-5014999Y-7520025D01*
X-4385001Y-7520025D01*
X-4385001Y-8080023D01*
G37*
%LPD*%
G36*
X-2753611Y-6981954D02*
X-3546385Y-6981954D01*
X-3546385Y-6018046D01*
X-2753611Y-6018046D01*
X-2753611Y-6981954D01*
G37*
%LPD*%
G36*
X-753615Y-6981954D02*
X-1546389Y-6981954D01*
X-1546389Y-6018046D01*
X-753615Y-6018046D01*
X-753615Y-6981954D01*
G37*
%LPD*%
G36*
X-4385001Y-6679975D02*
X-5014999Y-6679975D01*
X-5014999Y-6119977D01*
X-4385001Y-6119977D01*
X-4385001Y-6679975D01*
G37*
%LPD*%
G36*
X-4457536Y-3814897D02*
X-4457536Y-4584895D01*
X-4842544Y-4584895D01*
X-4842544Y-3814897D01*
X-4457536Y-3814897D01*
G37*
%LPD*%
G36*
X-3010999Y-3595116D02*
X-3389001Y-3595116D01*
X-3389001Y-3245116D01*
X-3010999Y-3245116D01*
X-3010999Y-3595116D01*
G37*
%LPD*%
G36*
X-1210999Y-3095116D02*
X-1589001Y-3095116D01*
X-1589001Y-2745116D01*
X-1210999Y-2745116D01*
X-1210999Y-3095116D01*
G37*
%LPD*%
G36*
X357569Y-2690071D02*
X-407441Y-2690071D01*
X-407441Y-2510071D01*
X357569Y-2510071D01*
X357569Y-2690071D01*
G37*
%LPD*%
G36*
X-3010999Y-2754884D02*
X-3389001Y-2754884D01*
X-3389001Y-2404884D01*
X-3010999Y-2404884D01*
X-3010999Y-2754884D01*
G37*
%LPD*%
G36*
X357569Y-2290021D02*
X-407441Y-2290021D01*
X-407441Y-2110021D01*
X357569Y-2110021D01*
X357569Y-2290021D01*
G37*
%LPD*%
G36*
X-1210999Y-2254884D02*
X-1589001Y-2254884D01*
X-1589001Y-1904884D01*
X-1210999Y-1904884D01*
X-1210999Y-2254884D01*
G37*
%LPD*%
G36*
X-4457536Y-2185103D02*
X-4842544Y-2185103D01*
X-4842544Y-1415105D01*
X-4457536Y-1415105D01*
X-4457536Y-2185103D01*
G37*
%LPD*%
G36*
X357569Y-1889971D02*
X-407441Y-1889971D01*
X-407441Y-1709971D01*
X357569Y-1709971D01*
X357569Y-1889971D01*
G37*
%LPD*%
G36*
X357569Y-1489921D02*
X-407441Y-1489921D01*
X-407441Y-1309921D01*
X357569Y-1309921D01*
X357569Y-1489921D01*
G37*
%LPD*%
G36*
X357569Y-1089871D02*
X-407441Y-1089871D01*
X-407441Y-909871D01*
X357569Y-909871D01*
X357569Y-1089871D01*
G37*
%LPD*%
G36*
X-1264370Y-1002402D02*
X-1828902Y-1002402D01*
X-1828902Y-397598D01*
X-1264370Y-397598D01*
X-1264370Y-1002402D01*
G37*
%LPD*%
G36*
X-2771098Y-1002402D02*
X-3335630Y-1002402D01*
X-3335630Y-397598D01*
X-2771098Y-397598D01*
X-2771098Y-1002402D01*
G37*
%LPD*%
G36*
X357569Y-690075D02*
X-407441Y-690075D01*
X-407441Y-510075D01*
X357569Y-510075D01*
X357569Y-690075D01*
G37*
%LPD*%
G36*
X357569Y-290025D02*
X-407441Y-290025D01*
X-407441Y-110025D01*
X357569Y-110025D01*
X357569Y-290025D01*
G37*
%LPD*%
G36*
X-4287666Y-454796D02*
X-5327174Y-454796D01*
X-5327174Y754796D01*
X-4287666Y754796D01*
X-4287666Y-454796D01*
G37*
%LPD*%
G36*
X357569Y510075D02*
X-407441Y510075D01*
X-407441Y690075D01*
X357569Y690075D01*
X357569Y510075D01*
G37*
%LPD*%
G36*
X357569Y910125D02*
X-407441Y910125D01*
X-407441Y1090125D01*
X357569Y1090125D01*
X357569Y910125D01*
G37*
%LPD*%
G36*
X357569Y1309921D02*
X-407441Y1309921D01*
X-407441Y1489921D01*
X357569Y1489921D01*
X357569Y1309921D01*
G37*
%LPD*%
G36*
X357569Y1709971D02*
X-407441Y1709971D01*
X-407441Y1889971D01*
X357569Y1889971D01*
X357569Y1709971D01*
G37*
%LPD*%
G36*
X357569Y2110021D02*
X-407441Y2110021D01*
X-407441Y2290021D01*
X357569Y2290021D01*
X357569Y2110021D01*
G37*
%LPD*%
G36*
X-1879979Y2267496D02*
X-2719977Y2267496D01*
X-2719977Y2932504D01*
X-1879979Y2932504D01*
X-1879979Y2267496D01*
G37*
%LPD*%
G36*
X357569Y2510071D02*
X-407441Y2510071D01*
X-407441Y2690071D01*
X357569Y2690071D01*
X357569Y2510071D01*
G37*
%LPD*%
G36*
X-4644650Y4381800D02*
X-4854650Y4381800D01*
X-4854650Y4871800D01*
X-4644650Y4871800D01*
X-4644650Y4381800D01*
G37*
%LPD*%
G36*
X-5145030Y4381800D02*
X-5355030Y4381800D01*
X-5355030Y4871800D01*
X-5145030Y4871800D01*
X-5145030Y4381800D01*
G37*
%LPD*%
G36*
X-4144778Y4381800D02*
X-4354778Y4381800D01*
X-4354778Y4871800D01*
X-4144778Y4871800D01*
X-4144778Y4381800D01*
G37*
%LPD*%
G36*
X-3645160Y4381800D02*
X-3855160Y4381800D01*
X-3855160Y4871800D01*
X-3645160Y4871800D01*
X-3645160Y4381800D01*
G37*
%LPD*%
G36*
X-545116Y4610999D02*
X-895116Y4610999D01*
X-895116Y4989001D01*
X-545116Y4989001D01*
X-545116Y4610999D01*
G37*
%LPD*%
G36*
X-3869970Y5960000D02*
X-5129967Y5960000D01*
X-5129967Y6240000D01*
X-3869970Y6240000D01*
X-3869970Y5960000D01*
G37*
%LPD*%
G36*
X-1610999Y7269204D02*
X-1989001Y7269204D01*
X-1989001Y7665164D01*
X-1610999Y7665164D01*
X-1610999Y7269204D01*
G37*
%LPD*%
G36*
X-3645160Y7328200D02*
X-3855160Y7328200D01*
X-3855160Y7818200D01*
X-3645160Y7818200D01*
X-3645160Y7328200D01*
G37*
%LPD*%
G36*
X-4144778Y7818200D02*
X-4144778Y7328200D01*
X-4354778Y7328200D01*
X-4354778Y7818200D01*
X-4144778Y7818200D01*
G37*
%LPD*%
G36*
X-4644650Y7328200D02*
X-4854650Y7328200D01*
X-4854650Y7818200D01*
X-4644650Y7818200D01*
X-4644650Y7328200D01*
G37*
%LPD*%
G36*
X-5145030Y7328200D02*
X-5355030Y7328200D01*
X-5355030Y7818200D01*
X-5145030Y7818200D01*
X-5145030Y7328200D01*
G37*
%LPD*%
G36*
X-1610999Y8134836D02*
X-1989001Y8134836D01*
X-1989001Y8530796D01*
X-1610999Y8530796D01*
X-1610999Y8134836D01*
G37*
%LPD*%
G36*
X-4010035Y10830883D02*
X-3800053Y10830883D01*
X-3800053Y10830989D01*
X-3590054Y10830989D01*
X-3590054Y9920973D01*
X-3800036Y9920973D01*
X-3800036Y9920867D01*
X-4010035Y9920867D01*
X-4010035Y10830883D01*
G37*
%LPD*%
G36*
X-5144940Y9920929D02*
X-5354940Y9920929D01*
X-5354940Y10830927D01*
X-5144940Y10830927D01*
X-5144940Y9920929D01*
G37*
%LPD*%
G36*
X-4810034Y10830973D02*
X-4600070Y10830973D01*
X-4600070Y10830990D01*
X-4390052Y10830990D01*
X-4390052Y9921010D01*
X-4600016Y9921010D01*
X-4600016Y9920992D01*
X-4810034Y9920992D01*
X-4810034Y10830973D01*
G37*
%LPD*%
G36*
X-471098Y12697598D02*
X-1035630Y12697598D01*
X-1035630Y13302402D01*
X-471098Y13302402D01*
X-471098Y12697598D01*
G37*
%LPD*%
G36*
X4980023Y-13314999D02*
X4420025Y-13314999D01*
X4420025Y-12685001D01*
X4980023Y-12685001D01*
X4980023Y-13314999D01*
G37*
%LPD*%
G36*
X3579975Y-13314999D02*
X3019977Y-13314999D01*
X3019977Y-12685001D01*
X3579975Y-12685001D01*
X3579975Y-13314999D01*
G37*
%LPD*%
G36*
X639225Y-12539225D02*
X-600127Y-12539225D01*
X-600127Y-11299873D01*
X639225Y-11299873D01*
X639225Y-12539225D01*
G37*
%LPD*%
G36*
X639225Y-11099873D02*
X-600127Y-11099873D01*
X-600127Y-9860521D01*
X639225Y-9860521D01*
X639225Y-11099873D01*
G37*
%LPD*%
G36*
X4980023Y-10564999D02*
X4420025Y-10564999D01*
X4420025Y-9935001D01*
X4980023Y-9935001D01*
X4980023Y-10564999D01*
G37*
%LPD*%
G36*
X3579975Y-10564999D02*
X3019977Y-10564999D01*
X3019977Y-9935001D01*
X3579975Y-9935001D01*
X3579975Y-10564999D01*
G37*
%LPD*%
G36*
X3339001Y-9095116D02*
X2960999Y-9095116D01*
X2960999Y-8745116D01*
X3339001Y-8745116D01*
X3339001Y-9095116D01*
G37*
%LPD*%
G36*
X3339001Y-8254884D02*
X2960999Y-8254884D01*
X2960999Y-7904884D01*
X3339001Y-7904884D01*
X3339001Y-8254884D01*
G37*
%LPD*%
G36*
X2946385Y-6981954D02*
X2153611Y-6981954D01*
X2153611Y-6018046D01*
X2946385Y-6018046D01*
X2946385Y-6981954D01*
G37*
%LPD*%
G36*
X946389Y-6981954D02*
X153615Y-6981954D01*
X153615Y-6018046D01*
X946389Y-6018046D01*
X946389Y-6981954D01*
G37*
%LPD*%
G36*
X3195116Y-5089001D02*
X2845116Y-5089001D01*
X2845116Y-4710999D01*
X3195116Y-4710999D01*
X3195116Y-5089001D01*
G37*
%LPD*%
G36*
X4354884Y-5089001D02*
X4004884Y-5089001D01*
X4004884Y-4710999D01*
X4354884Y-4710999D01*
X4354884Y-5089001D01*
G37*
%LPD*%
G36*
X2354884Y-5089001D02*
X2004884Y-5089001D01*
X2004884Y-4710999D01*
X2354884Y-4710999D01*
X2354884Y-5089001D01*
G37*
%LPD*%
G36*
X3689898Y-3807568D02*
X3509898Y-3807568D01*
X3509898Y-3042558D01*
X3689898Y-3042558D01*
X3689898Y-3807568D01*
G37*
%LPD*%
G36*
X2890052Y-3807568D02*
X2710052Y-3807568D01*
X2710052Y-3042558D01*
X2890052Y-3042558D01*
X2890052Y-3807568D01*
G37*
%LPD*%
G36*
X3289848Y-3807568D02*
X3109848Y-3807568D01*
X3109848Y-3042558D01*
X3289848Y-3042558D01*
X3289848Y-3807568D01*
G37*
%LPD*%
G36*
X2490002Y-3807568D02*
X2310002Y-3807568D01*
X2310002Y-3042558D01*
X2490002Y-3042558D01*
X2490002Y-3807568D01*
G37*
%LPD*%
G36*
X4089948Y-3807568D02*
X3909948Y-3807568D01*
X3909948Y-3042558D01*
X4089948Y-3042558D01*
X4089948Y-3807568D01*
G37*
%LPD*%
G36*
X2089952Y-3807568D02*
X1909952Y-3807568D01*
X1909952Y-3042558D01*
X2089952Y-3042558D01*
X2089952Y-3807568D01*
G37*
%LPD*%
G36*
X1689902Y-3807568D02*
X1509902Y-3807568D01*
X1509902Y-3042558D01*
X1689902Y-3042558D01*
X1689902Y-3807568D01*
G37*
%LPD*%
G36*
X4489998Y-3807568D02*
X4309998Y-3807568D01*
X4309998Y-3042558D01*
X4489998Y-3042558D01*
X4489998Y-3807568D01*
G37*
%LPD*%
G36*
X1289852Y-3807568D02*
X1109852Y-3807568D01*
X1109852Y-3042558D01*
X1289852Y-3042558D01*
X1289852Y-3807568D01*
G37*
%LPD*%
G36*
X890056Y-3807568D02*
X710056Y-3807568D01*
X710056Y-3042558D01*
X890056Y-3042558D01*
X890056Y-3807568D01*
G37*
%LPD*%
G36*
X4700622Y-99873D02*
X4700622Y-1300495D01*
X3500000Y-1300495D01*
X3500000Y-99873D01*
X4700622Y-99873D01*
G37*
%LPD*%
G36*
X3300000Y-1300495D02*
X2099378Y-1300495D01*
X2099378Y-99873D01*
X3300000Y-99873D01*
X3300000Y-1300495D01*
G37*
%LPD*%
G36*
X357569Y110025D02*
X-407441Y110025D01*
X-407441Y290025D01*
X357569Y290025D01*
X357569Y110025D01*
G37*
%LPD*%
G36*
X3300000Y100127D02*
X2099378Y100127D01*
X2099378Y1300749D01*
X3300000Y1300749D01*
X3300000Y100127D01*
G37*
%LPD*%
G36*
X4700622Y100127D02*
X3500000Y100127D01*
X3500000Y1300749D01*
X4700622Y1300749D01*
X4700622Y100127D01*
G37*
%LPD*%
G36*
X890056Y3042558D02*
X710056Y3042558D01*
X710056Y3807568D01*
X890056Y3807568D01*
X890056Y3042558D01*
G37*
%LPD*%
G36*
X2890052Y3042558D02*
X2710052Y3042558D01*
X2710052Y3807568D01*
X2890052Y3807568D01*
X2890052Y3042558D01*
G37*
%LPD*%
G36*
X1289852Y3042558D02*
X1109852Y3042558D01*
X1109852Y3807568D01*
X1289852Y3807568D01*
X1289852Y3042558D01*
G37*
%LPD*%
G36*
X4489998Y3042558D02*
X4309998Y3042558D01*
X4309998Y3807568D01*
X4489998Y3807568D01*
X4489998Y3042558D01*
G37*
%LPD*%
G36*
X1689902Y3042558D02*
X1509902Y3042558D01*
X1509902Y3807568D01*
X1689902Y3807568D01*
X1689902Y3042558D01*
G37*
%LPD*%
G36*
X2089952Y3042558D02*
X1909952Y3042558D01*
X1909952Y3807568D01*
X2089952Y3807568D01*
X2089952Y3042558D01*
G37*
%LPD*%
G36*
X4089948Y3042558D02*
X3909948Y3042558D01*
X3909948Y3807568D01*
X4089948Y3807568D01*
X4089948Y3042558D01*
G37*
%LPD*%
G36*
X3689898Y3042558D02*
X3509898Y3042558D01*
X3509898Y3807568D01*
X3689898Y3807568D01*
X3689898Y3042558D01*
G37*
%LPD*%
G36*
X2490002Y3042558D02*
X2310002Y3042558D01*
X2310002Y3807568D01*
X2490002Y3807568D01*
X2490002Y3042558D01*
G37*
%LPD*%
G36*
X3289848Y3042558D02*
X3109848Y3042558D01*
X3109848Y3807568D01*
X3289848Y3807568D01*
X3289848Y3042558D01*
G37*
%LPD*%
G36*
X295116Y4610999D02*
X-54884Y4610999D01*
X-54884Y4989001D01*
X295116Y4989001D01*
X295116Y4610999D01*
G37*
%LPD*%
G36*
X4889001Y4669204D02*
X4510999Y4669204D01*
X4510999Y5065164D01*
X4889001Y5065164D01*
X4889001Y4669204D01*
G37*
%LPD*%
G36*
X2589001Y4704884D02*
X2210999Y4704884D01*
X2210999Y5054884D01*
X2589001Y5054884D01*
X2589001Y4704884D01*
G37*
%LPD*%
G36*
X3689001Y4704884D02*
X3310999Y4704884D01*
X3310999Y5054884D01*
X3689001Y5054884D01*
X3689001Y4704884D01*
G37*
%LPD*%
G36*
X2589001Y5545116D02*
X2210999Y5545116D01*
X2210999Y5895116D01*
X2589001Y5895116D01*
X2589001Y5545116D01*
G37*
%LPD*%
G36*
X3689001Y5545116D02*
X3310999Y5545116D01*
X3310999Y5895116D01*
X3689001Y5895116D01*
X3689001Y5545116D01*
G37*
%LPD*%
G36*
X4889001Y5534836D02*
X4510999Y5534836D01*
X4510999Y5930796D01*
X4889001Y5930796D01*
X4889001Y5534836D01*
G37*
%LPD*%
G36*
X4489001Y6804884D02*
X4110999Y6804884D01*
X4110999Y7154884D01*
X4489001Y7154884D01*
X4489001Y6804884D01*
G37*
%LPD*%
G36*
X4489001Y7645116D02*
X4110999Y7645116D01*
X4110999Y7995116D01*
X4489001Y7995116D01*
X4489001Y7645116D01*
G37*
%LPD*%
G36*
X4010002Y9920836D02*
X3800003Y9920836D01*
X3799985Y9920836D01*
X3589985Y9920836D01*
X3589985Y10830817D01*
X3799985Y10830817D01*
X3800003Y10830817D01*
X4010002Y10830817D01*
X4010002Y9920836D01*
G37*
%LPD*%
G36*
X4389831Y10830817D02*
X4599831Y10830817D01*
X4599849Y10830817D01*
X4809848Y10830817D01*
X4809848Y9920836D01*
X4599849Y9920836D01*
X4599831Y9920836D01*
X4389831Y9920836D01*
X4389831Y10830817D01*
G37*
%LPD*%
G36*
X1035630Y12697598D02*
X471098Y12697598D01*
X471098Y13302402D01*
X1035630Y13302402D01*
X1035630Y12697598D01*
G37*
%LPD*%
G36*
X7828902Y-13202402D02*
X7264370Y-13202402D01*
X7264370Y-12597598D01*
X7828902Y-12597598D01*
X7828902Y-13202402D01*
G37*
%LPD*%
G36*
X6414999Y-11980023D02*
X5785001Y-11980023D01*
X5785001Y-11420025D01*
X6414999Y-11420025D01*
X6414999Y-11980023D01*
G37*
%LPD*%
G36*
X7828902Y-11702402D02*
X7264370Y-11702402D01*
X7264370Y-11097598D01*
X7828902Y-11097598D01*
X7828902Y-11702402D01*
G37*
%LPD*%
G36*
X6414999Y-10579975D02*
X5785001Y-10579975D01*
X5785001Y-10019977D01*
X6414999Y-10019977D01*
X6414999Y-10579975D01*
G37*
%LPD*%
G36*
X5389925Y-7830012D02*
X5389925Y-8670010D01*
X4409927Y-8670010D01*
X4409927Y-7830012D01*
X5389925Y-7830012D01*
G37*
%LPD*%
G36*
X7590073Y-8670010D02*
X6610075Y-8670010D01*
X6610075Y-7830012D01*
X7590073Y-7830012D01*
X7590073Y-8670010D01*
G37*
%LPD*%
G36*
X5389925Y-6969988D02*
X4409927Y-6969988D01*
X4409927Y-6129990D01*
X5389925Y-6129990D01*
X5389925Y-6969988D01*
G37*
%LPD*%
G36*
X7590073Y-6969988D02*
X6610075Y-6969988D01*
X6610075Y-6129990D01*
X7590073Y-6129990D01*
X7590073Y-6969988D01*
G37*
%LPD*%
G36*
X5195116Y-5089001D02*
X4845116Y-5089001D01*
X4845116Y-4710999D01*
X5195116Y-4710999D01*
X5195116Y-5089001D01*
G37*
%LPD*%
G36*
X6665164Y-4989001D02*
X6269204Y-4989001D01*
X6269204Y-4610999D01*
X6665164Y-4610999D01*
X6665164Y-4989001D01*
G37*
%LPD*%
G36*
X7530796Y-4989001D02*
X7134836Y-4989001D01*
X7134836Y-4610999D01*
X7530796Y-4610999D01*
X7530796Y-4989001D01*
G37*
%LPD*%
G36*
X4890048Y-3807568D02*
X4710048Y-3807568D01*
X4710048Y-3042558D01*
X4890048Y-3042558D01*
X4890048Y-3807568D01*
G37*
%LPD*%
G36*
X6089944Y-3807568D02*
X5909944Y-3807568D01*
X5909944Y-3042558D01*
X6089944Y-3042558D01*
X6089944Y-3807568D01*
G37*
%LPD*%
G36*
X5689894Y-3807568D02*
X5509894Y-3807568D01*
X5509894Y-3042558D01*
X5689894Y-3042558D01*
X5689894Y-3807568D01*
G37*
%LPD*%
G36*
X5289844Y-3807568D02*
X5109844Y-3807568D01*
X5109844Y-3042558D01*
X5289844Y-3042558D01*
X5289844Y-3807568D01*
G37*
%LPD*%
G36*
X7207441Y-2690071D02*
X6442431Y-2690071D01*
X6442431Y-2510071D01*
X7207441Y-2510071D01*
X7207441Y-2690071D01*
G37*
%LPD*%
G36*
X7207441Y-2290021D02*
X6442431Y-2290021D01*
X6442431Y-2110021D01*
X7207441Y-2110021D01*
X7207441Y-2290021D01*
G37*
%LPD*%
G36*
X7207441Y-1889971D02*
X6442431Y-1889971D01*
X6442431Y-1709971D01*
X7207441Y-1709971D01*
X7207441Y-1889971D01*
G37*
%LPD*%
G36*
X7207441Y-1489921D02*
X6442431Y-1489921D01*
X6442431Y-1309921D01*
X7207441Y-1309921D01*
X7207441Y-1489921D01*
G37*
%LPD*%
G36*
X7207441Y-1089871D02*
X6442431Y-1089871D01*
X6442431Y-909871D01*
X7207441Y-909871D01*
X7207441Y-1089871D01*
G37*
%LPD*%
G36*
X7207441Y-690075D02*
X6442431Y-690075D01*
X6442431Y-510075D01*
X7207441Y-510075D01*
X7207441Y-690075D01*
G37*
%LPD*%
G36*
X7207441Y-290025D02*
X6442431Y-290025D01*
X6442431Y-110025D01*
X7207441Y-110025D01*
X7207441Y-290025D01*
G37*
%LPD*%
G36*
X8439001Y4884D02*
X8060999Y4884D01*
X8060999Y354884D01*
X8439001Y354884D01*
X8439001Y4884D01*
G37*
%LPD*%
G36*
X7207441Y110025D02*
X6442431Y110025D01*
X6442431Y290025D01*
X7207441Y290025D01*
X7207441Y110025D01*
G37*
%LPD*%
G36*
X7207441Y510075D02*
X6442431Y510075D01*
X6442431Y690075D01*
X7207441Y690075D01*
X7207441Y510075D01*
G37*
%LPD*%
G36*
X7207441Y910125D02*
X6442431Y910125D01*
X6442431Y1090125D01*
X7207441Y1090125D01*
X7207441Y910125D01*
G37*
%LPD*%
G36*
X7207441Y1309921D02*
X6442431Y1309921D01*
X6442431Y1489921D01*
X7207441Y1489921D01*
X7207441Y1309921D01*
G37*
%LPD*%
G36*
X7207441Y1709971D02*
X6442431Y1709971D01*
X6442431Y1889971D01*
X7207441Y1889971D01*
X7207441Y1709971D01*
G37*
%LPD*%
G36*
X7207441Y2110021D02*
X6442431Y2110021D01*
X6442431Y2290021D01*
X7207441Y2290021D01*
X7207441Y2110021D01*
G37*
%LPD*%
G36*
X7207441Y2510071D02*
X6442431Y2510071D01*
X6442431Y2690071D01*
X7207441Y2690071D01*
X7207441Y2510071D01*
G37*
%LPD*%
G36*
X8439001Y2845116D02*
X8060999Y2845116D01*
X8060999Y3195116D01*
X8439001Y3195116D01*
X8439001Y2845116D01*
G37*
%LPD*%
G36*
X4890048Y3042558D02*
X4710048Y3042558D01*
X4710048Y3807568D01*
X4890048Y3807568D01*
X4890048Y3042558D01*
G37*
%LPD*%
G36*
X5289844Y3042558D02*
X5109844Y3042558D01*
X5109844Y3807568D01*
X5289844Y3807568D01*
X5289844Y3042558D01*
G37*
%LPD*%
G36*
X6089944Y3042558D02*
X5909944Y3042558D01*
X5909944Y3807568D01*
X6089944Y3807568D01*
X6089944Y3042558D01*
G37*
%LPD*%
G36*
X5689894Y3042558D02*
X5509894Y3042558D01*
X5509894Y3807568D01*
X5689894Y3807568D01*
X5689894Y3042558D01*
G37*
%LPD*%
G36*
X6089001Y5065164D02*
X6089001Y4669204D01*
X5710999Y4669204D01*
X5710999Y5065164D01*
X6089001Y5065164D01*
G37*
%LPD*%
G36*
X7289001Y4704884D02*
X6910999Y4704884D01*
X6910999Y5054884D01*
X7289001Y5054884D01*
X7289001Y4704884D01*
G37*
%LPD*%
G36*
X7289001Y5545116D02*
X6910999Y5545116D01*
X6910999Y5895116D01*
X7289001Y5895116D01*
X7289001Y5545116D01*
G37*
%LPD*%
G36*
X6089001Y5534836D02*
X5710999Y5534836D01*
X5710999Y5930796D01*
X6089001Y5930796D01*
X6089001Y5534836D01*
G37*
%LPD*%
G36*
X6689001Y6804884D02*
X6310999Y6804884D01*
X6310999Y7154884D01*
X6689001Y7154884D01*
X6689001Y6804884D01*
G37*
%LPD*%
G36*
X5589001Y6804884D02*
X5210999Y6804884D01*
X5210999Y7154884D01*
X5589001Y7154884D01*
X5589001Y6804884D01*
G37*
%LPD*%
G36*
X6689001Y7645116D02*
X6310999Y7645116D01*
X6310999Y7995116D01*
X6689001Y7995116D01*
X6689001Y7645116D01*
G37*
%LPD*%
G36*
X5589001Y7645116D02*
X5210999Y7645116D01*
X5210999Y7995116D01*
X5589001Y7995116D01*
X5589001Y7645116D01*
G37*
%LPD*%
G36*
X7354936Y9920929D02*
X7144936Y9920929D01*
X7144936Y10830927D01*
X7354936Y10830927D01*
X7354936Y9920929D01*
G37*
%LPD*%
G36*
X5855320Y9920929D02*
X5645320Y9920929D01*
X5645320Y10830927D01*
X5855320Y10830927D01*
X5855320Y9920929D01*
G37*
%LPD*%
G36*
X5354940Y9920929D02*
X5144940Y9920929D01*
X5144940Y10830927D01*
X5354940Y10830927D01*
X5354940Y9920929D01*
G37*
%LPD*%
G36*
X7855062Y9920929D02*
X7645062Y9920929D01*
X7645062Y10830927D01*
X7855062Y10830927D01*
X7855062Y9920929D01*
G37*
%LPD*%
G36*
X8354934Y9920929D02*
X8144934Y9920929D01*
X8144934Y10830927D01*
X8354934Y10830927D01*
X8354934Y9920929D01*
G37*
%LPD*%
G36*
X6354938Y9920929D02*
X6144938Y9920929D01*
X6144938Y10830927D01*
X6354938Y10830927D01*
X6354938Y9920929D01*
G37*
%LPD*%
G36*
X6855064Y9920929D02*
X6645064Y9920929D01*
X6645064Y10830927D01*
X6855064Y10830927D01*
X6855064Y9920929D01*
G37*
%LPD*%
G36*
X9335630Y-13202402D02*
X8771098Y-13202402D01*
X8771098Y-12597598D01*
X9335630Y-12597598D01*
X9335630Y-13202402D01*
G37*
%LPD*%
G36*
X9335630Y-11702402D02*
X8771098Y-11702402D01*
X8771098Y-11097598D01*
X9335630Y-11097598D01*
X9335630Y-11702402D01*
G37*
%LPD*%
G36*
X11332504Y-9820021D02*
X10667496Y-9820021D01*
X10667496Y-8980023D01*
X11332504Y-8980023D01*
X11332504Y-9820021D01*
G37*
%LPD*%
G36*
X9189001Y-9295116D02*
X8810999Y-9295116D01*
X8810999Y-8945116D01*
X9189001Y-8945116D01*
X9189001Y-9295116D01*
G37*
%LPD*%
G36*
X9189001Y-8454884D02*
X8810999Y-8454884D01*
X8810999Y-8104884D01*
X9189001Y-8104884D01*
X9189001Y-8454884D01*
G37*
%LPD*%
G36*
X9189001Y-7230796D02*
X8810999Y-7230796D01*
X8810999Y-6834836D01*
X9189001Y-6834836D01*
X9189001Y-7230796D01*
G37*
%LPD*%
G36*
X9189001Y-6365164D02*
X8810999Y-6365164D01*
X8810999Y-5969204D01*
X9189001Y-5969204D01*
X9189001Y-6365164D01*
G37*
%LPD*%
G36*
X11332504Y-6419977D02*
X10667496Y-6419977D01*
X10667496Y-5579979D01*
X11332504Y-5579979D01*
X11332504Y-6419977D01*
G37*
%LPD*%
G36*
X8902402Y-4835630D02*
X8297598Y-4835630D01*
X8297598Y-4271098D01*
X8902402Y-4271098D01*
X8902402Y-4835630D01*
G37*
%LPD*%
G36*
X11835630Y-4402402D02*
X11271098Y-4402402D01*
X11271098Y-3797598D01*
X11835630Y-3797598D01*
X11835630Y-4402402D01*
G37*
%LPD*%
G36*
X10328902Y-4402402D02*
X9764370Y-4402402D01*
X9764370Y-3797598D01*
X10328902Y-3797598D01*
X10328902Y-4402402D01*
G37*
%LPD*%
G36*
X13454884Y-4289001D02*
X13104884Y-4289001D01*
X13104884Y-3910999D01*
X13454884Y-3910999D01*
X13454884Y-4289001D01*
G37*
%LPD*%
G36*
X14295116Y-4289001D02*
X13945116Y-4289001D01*
X13945116Y-3910999D01*
X14295116Y-3910999D01*
X14295116Y-4289001D01*
G37*
%LPD*%
G36*
X8902402Y-3328902D02*
X8297598Y-3328902D01*
X8297598Y-2764370D01*
X8902402Y-2764370D01*
X8902402Y-3328902D01*
G37*
%LPD*%
G36*
X12880073Y-2839986D02*
X12320075Y-2839986D01*
X12320075Y-2559986D01*
X12880073Y-2559986D01*
X12880073Y-2839986D01*
G37*
%LPD*%
G36*
X10679925Y-2839986D02*
X10119927Y-2839986D01*
X10119927Y-2559986D01*
X10679925Y-2559986D01*
X10679925Y-2839986D01*
G37*
%LPD*%
G36*
X10679925Y-1910000D02*
X10679925Y-2190000D01*
X10119927Y-2190000D01*
X10119927Y-1910000D01*
X10679925Y-1910000D01*
G37*
%LPD*%
G36*
X8439001Y-1895116D02*
X8060999Y-1895116D01*
X8060999Y-1545116D01*
X8439001Y-1545116D01*
X8439001Y-1895116D01*
G37*
%LPD*%
G36*
X14228902Y-2002402D02*
X13664370Y-2002402D01*
X13664370Y-1397598D01*
X14228902Y-1397598D01*
X14228902Y-2002402D01*
G37*
%LPD*%
G36*
X15735630Y-2002402D02*
X15171098Y-2002402D01*
X15171098Y-1397598D01*
X15735630Y-1397598D01*
X15735630Y-2002402D01*
G37*
%LPD*%
G36*
X10679925Y-1540014D02*
X10119927Y-1540014D01*
X10119927Y-1260014D01*
X10679925Y-1260014D01*
X10679925Y-1540014D01*
G37*
%LPD*%
G36*
X12880073Y-1540014D02*
X12320075Y-1540014D01*
X12320075Y-1260014D01*
X12880073Y-1260014D01*
X12880073Y-1540014D01*
G37*
%LPD*%
G36*
X8439001Y-1054884D02*
X8060999Y-1054884D01*
X8060999Y-704884D01*
X8439001Y-704884D01*
X8439001Y-1054884D01*
G37*
%LPD*%
G36*
X14209575Y-259960D02*
X13460575Y-259960D01*
X13460575Y160040D01*
X14209575Y160040D01*
X14209575Y-259960D01*
G37*
%LPD*%
G36*
X11739425Y690000D02*
X10990425Y690000D01*
X10990425Y1110000D01*
X11739425Y1110000D01*
X11739425Y690000D01*
G37*
%LPD*%
G36*
X8439001Y845116D02*
X8060999Y845116D01*
X8060999Y1195116D01*
X8439001Y1195116D01*
X8439001Y845116D01*
G37*
%LPD*%
G36*
X16202402Y764370D02*
X15597598Y764370D01*
X15597598Y1328902D01*
X16202402Y1328902D01*
X16202402Y764370D01*
G37*
%LPD*%
G36*
X14209575Y1639960D02*
X13460575Y1639960D01*
X13460575Y2059960D01*
X14209575Y2059960D01*
X14209575Y1639960D01*
G37*
%LPD*%
G36*
X8439001Y2004884D02*
X8060999Y2004884D01*
X8060999Y2354884D01*
X8439001Y2354884D01*
X8439001Y2004884D01*
G37*
%LPD*%
G36*
X16202402Y2271098D02*
X15597598Y2271098D01*
X15597598Y2835630D01*
X16202402Y2835630D01*
X16202402Y2271098D01*
G37*
%LPD*%
G36*
X11628902Y3397598D02*
X11064370Y3397598D01*
X11064370Y4002402D01*
X11628902Y4002402D01*
X11628902Y3397598D01*
G37*
%LPD*%
G36*
X13135630Y3397598D02*
X12571098Y3397598D01*
X12571098Y4002402D01*
X13135630Y4002402D01*
X13135630Y3397598D01*
G37*
%LPD*%
G36*
X15330796Y3810999D02*
X14934836Y3810999D01*
X14934836Y4189001D01*
X15330796Y4189001D01*
X15330796Y3810999D01*
G37*
%LPD*%
G36*
X14465164Y3810999D02*
X14069204Y3810999D01*
X14069204Y4189001D01*
X14465164Y4189001D01*
X14465164Y3810999D01*
G37*
%LPD*%
G36*
X16202402Y5464370D02*
X15597598Y5464370D01*
X15597598Y6028902D01*
X16202402Y6028902D01*
X16202402Y5464370D01*
G37*
%LPD*%
G36*
X11626106Y5763839D02*
X10875702Y5763839D01*
X10875702Y6136241D01*
X11626106Y6136241D01*
X11626106Y5763839D01*
G37*
%LPD*%
G36*
X13924298Y5763839D02*
X13173894Y5763839D01*
X13173894Y6136241D01*
X13924298Y6136241D01*
X13924298Y5763839D01*
G37*
%LPD*%
G36*
X13924298Y6713799D02*
X13173894Y6713799D01*
X13173894Y7086201D01*
X13924298Y7086201D01*
X13924298Y6713799D01*
G37*
%LPD*%
G36*
X11626106Y6713799D02*
X10875702Y6713799D01*
X10875702Y7086201D01*
X11626106Y7086201D01*
X11626106Y6713799D01*
G37*
%LPD*%
G36*
X16202402Y6971098D02*
X15597598Y6971098D01*
X15597598Y7535630D01*
X16202402Y7535630D01*
X16202402Y6971098D01*
G37*
%LPD*%
G36*
X13924298Y7663759D02*
X13173894Y7663759D01*
X13173894Y8036161D01*
X13924298Y8036161D01*
X13924298Y7663759D01*
G37*
%LPD*%
G36*
X11626106Y7663759D02*
X10875702Y7663759D01*
X10875702Y8036161D01*
X11626106Y8036161D01*
X11626106Y7663759D01*
G37*
%LPD*%
G36*
X9989965Y10830883D02*
X10199947Y10830883D01*
X10199947Y10830989D01*
X10409946Y10830989D01*
X10409946Y9920973D01*
X10199964Y9920973D01*
X10199964Y9920867D01*
X9989965Y9920867D01*
X9989965Y10830883D01*
G37*
%LPD*%
G36*
X8855060Y9920929D02*
X8645060Y9920929D01*
X8645060Y10830927D01*
X8855060Y10830927D01*
X8855060Y9920929D01*
G37*
%LPD*%
G36*
X9189966Y10830973D02*
X9399930Y10830973D01*
X9399930Y10830990D01*
X9609948Y10830990D01*
X9609948Y9921010D01*
X9399984Y9921010D01*
X9399984Y9920992D01*
X9189966Y9920992D01*
X9189966Y10830973D01*
G37*
%LPD*%
G36*
X14130796Y16210999D02*
X13734836Y16210999D01*
X13734836Y16589001D01*
X14130796Y16589001D01*
X14130796Y16210999D01*
G37*
%LPD*%
G36*
X13265164Y16210999D02*
X12869204Y16210999D01*
X12869204Y16589001D01*
X13265164Y16589001D01*
X13265164Y16210999D01*
G37*
M02*
