M48
; DRILL file {tscircuit} date 2026-10-07T23:53:09.764Z
; FORMAT={-:-/ absolute / metric / decimal}
; #@! TF.CreationDate,2026-10-07T23:53:09.764Z
; #@! TF.GenerationSoftware,tscircuit
; #@! TF.FileFunction,Plated,1,4,PTH
FMAT,2
METRIC
; #@! TA.AperFunction,Plated,PTH,ComponentDrill
T10C0.799998
; #@! TA.AperFunction,Plated,PTH,ComponentDrill
T11C0.900000
; #@! TA.AperFunction,Plated,PTH,ComponentDrill
T12C0.250000
; #@! TA.AperFunction,Plated,PTH,ComponentDrill
T13C0.200000
%
G90
G05
T10
X-15.1241Y0.1749
G85X-14.724Y0.175
X-11.0943Y0.1749
G85X-10.394Y0.175
X-11.0943Y8.8251
G85X-10.394Y8.825
X-15.1241Y8.8251
G85X-14.724Y8.825
X15.1241Y8.8251
G85X14.724Y8.825
X11.0943Y8.8251
G85X10.394Y8.825
X11.0943Y0.1749
G85X10.394Y0.175
X15.1241Y0.1749
G85X14.724Y0.175
T11
X-3.0000Y-16.0000
X-1.0000Y-16.0000
X1.0000Y-16.0000
X3.0000Y-16.0000
T12
X3.5489Y7.8438
X-1.0424Y-3.1599
X8.1499Y5.3260
X7.1809Y7.8438
X-1.9534Y5.4282
X-1.7518Y8.0003
X-4.4412Y-16.5000
X1.6811Y-8.0211
X-2.6000Y-6.1782
X-11.0444Y-6.1782
X8.5865Y4.1699
X8.2241Y8.6201
X5.1326Y10.3062
X5.0811Y8.9581
X9.2426Y10.7714
X11.0855Y16.4450
X4.6040Y14.9399
X7.6307Y10.2969
X8.9230Y1.2363
X-3.3068Y1.2363
X-0.9377Y10.9340
X1.0736Y-2.1084
X7.1825Y6.8711
X14.1157Y-7.6800
X-0.9039Y12.6440
X5.1491Y-13.0468
X7.9034Y-4.8271
X-1.4383Y1.9735
X7.1000Y4.0306
X-5.6500Y-0.4519
X-5.7141Y-5.2171
X3.6873Y2.5275
X4.3089Y13.0776
X0.4610Y13.1240
X0.7728Y7.9078
X1.1999Y4.4944
X1.5063Y7.8864
X1.3314Y2.5978
X3.4855Y8.6889
X2.2742Y2.2425
X1.7503Y9.2041
X3.3046Y-1.9833
X2.9673Y2.2080
X4.6689Y2.5791
X6.5053Y3.6383
X5.3625Y13.9565
X5.9913Y2.3115
X13.6775Y2.6279
X3.1945Y13.0130
X5.4016Y-0.4610
X9.2033Y-0.4610
X5.9526Y-2.2754
X7.1020Y-4.2127
X14.2967Y-4.9680
X4.9866Y-1.9999
X4.3161Y-2.1101
X13.3813Y-4.7486
X-0.3883Y-3.1152
X-7.9654Y13.2427
X3.9167Y-13.5626
X1.3828Y-0.9519
X4.1475Y-8.4648
X2.9049Y-9.1159
X3.4067Y-12.6852
X1.1235Y0.6651
X-1.1375Y-8.1117
X-8.0000Y-14.4200
X-0.4261Y-8.1230
X0.2442Y-8.1003
X5.7041Y-13.7532
X0.9909Y-8.1234
X-2.6787Y-14.2844
X2.2521Y-8.9108
X-2.1240Y-9.4310
X-3.3999Y8.2000
X3.4000Y0.0001
X-0.0000Y-11.5000
T13
X2.3000Y4.2500
X2.7500Y9.3500
M30