%TF.GenerationSoftware,tscircuit,circuit-json-to-gerber,0.0.111*%
%TF.CreationDate,2026-10-07T23:53:09.584Z*%
%TF.SameCoordinates,Original*%
%TF.FileFunction,Other,Fab,Top*%
%TF.FilePolarity,Positive*%
%FSLAX46Y46*%
%MOMM*%
G04 Gerber Fmt 4.6, Leading zero omitted, Abs format (unit mm)*
G04 Created by tscircuit (builder) date 2026-10-07T23:53:09.584Z*
G01*
%LPD*%
G75*
G04 APERTURE MACROS START*
%AMHORZPILL*
0 Horizontal pill (stadium) shape macro*
0 Parameters:*
0 $1 = Total width*
0 $2 = Total height*
0 $3 = Circle diameter (equal to height)*
0 $4 = Circle center offset
0 21 = Center Line(Exposure, Width, Height, Center X, Center Y, Rotation)*
0 1 = Circle(Exposure, Diameter, Center X, Center Y, Rotation)*
21,1,$1-$3,$2,0.0,0.0,0.0*
1,1,$3,0.0-$4,0.0*
1,1,$3,$4,0.0*%
%AMVERTPILL*
0 Vertical pill (stadium) shape macro*
0 Parameters:*
0 $1 = Total width*
0 $2 = Total height*
0 $3 = Circle diameter (equal to width)*
0 $4 = Circle center offset
0 21 = Center Line(Exposure, Width, Height, Center X, Center Y, Rotation)*
21,1,$1,$2-$3,0.0,0.0,0.0*
1,1,$3,0.0,0.0-$4*
1,1,$3,0.0,$4*%
%AMROUNDRECT*
0 Rectangle with rounded corners*
0 $1 Corner radius*
0 $2 $3 $4 $5 $6 $7 $8 $9 X,Y Position of each corner*
0 Polygon box body*
4,1,4,$2,$3,$4,$5,$6,$7,$8,$9,$2,$3,0*
0 Circles for rounded corners*
1,1,$1+$1,$2,$3*
1,1,$1+$1,$4,$5*
1,1,$1+$1,$6,$7*
1,1,$1+$1,$8,$9*
0 Rectangles between the rounded corners*
20,1,$1+$1,$2,$3,$4,$5,0*
20,1,$1+$1,$4,$5,$6,$7,0*
20,1,$1+$1,$6,$7,$8,$9,0*
20,1,$1+$1,$8,$9,$2,$3,0*%
G04 APERTURE MACROS END*
G04 aperture START LIST*
%ADD10C,0.450000*%
%ADD11C,0.252000*%
%ADD12C,0.260000*%
%ADD13C,0.309000*%
%ADD14C,0.178000*%
%ADD15C,0.448000*%
%ADD16C,0.160000*%
%ADD17C,0.180000*%
%ADD18C,0.437000*%
%ADD19C,0.398000*%
%ADD20C,0.237000*%
%ADD21C,0.247000*%
%ADD22C,0.356000*%
%ADD23C,0.241000*%
%ADD24C,0.230000*%
%ADD25C,0.427000*%
%ADD26C,0.407000*%
%ADD27C,0.242000*%
%ADD28C,0.228000*%
%ADD29C,0.419000*%
%ADD30C,0.199000*%
%ADD31C,0.259000*%
%ADD32C,0.277000*%
%ADD33C,0.299000*%
%ADD34C,0.205000*%
%ADD35C,0.385000*%
%ADD36C,0.298000*%
%ADD37C,0.600000*%
%ADD38C,0.300000*%
%ADD39C,0.502000*%
%ADD40C,0.400000*%
%ADD41C,0.332000*%
%ADD42C,0.414000*%
%ADD43C,0.426000*%
%ADD44C,0.412000*%
%ADD45C,0.265000*%
%ADD46C,0.231000*%
%ADD47C,0.269000*%
%ADD48C,0.215000*%
%ADD49C,0.280000*%
%ADD50C,0.210000*%
%ADD51C,0.236000*%
%ADD52C,0.209000*%
%ADD53C,0.233000*%
%ADD54C,0.173000*%
%ADD55C,0.196000*%
%ADD56C,0.229000*%
%ADD57C,0.200000*%
%ADD58C,0.226000*%
%ADD59C,0.336000*%
%ADD60C,0.335000*%
%ADD61C,0.375000*%
%ADD62C,0.324000*%
%ADD63C,0.346000*%
%ADD64C,0.410000*%
%ADD65C,0.316000*%
%ADD66C,0.303000*%
%ADD67C,0.420000*%
%ADD68C,0.254000*%
%ADD69C,0.080000*%
%TD*%
G04 aperture END LIST*
D68*
X-02810061Y004012014D02*
X-01968102Y004012014D01*
X-01968102Y003805055D01*
X-02810670Y003805055D01*
X-02810061Y004012014D01*
D68*
X-02475390Y003461596D02*
X-02475390Y004303555D01*
X-02268431Y004303555D01*
X-02268431Y003460986D01*
X-02475390Y003461596D01*
D68*
X-06041525Y003923774D02*
X-05199566Y003923774D01*
X-05199566Y003716815D01*
X-06042135Y003716815D01*
X-06041525Y003923774D01*
D68*
X-04399999Y003800000D02*
X-04399999Y003800000D01*
X-03800000Y003200001D01*
X-03800000Y004399999D01*
X-04399999Y003800000D01*
D68*
X-02810061Y001212014D02*
X-01968102Y001212014D01*
X-01968102Y001005055D01*
X-02810670Y001005055D01*
X-02810061Y001212014D01*
D68*
X-02475390Y000661596D02*
X-02475390Y001503555D01*
X-02268431Y001503555D01*
X-02268431Y000660986D01*
X-02475390Y000661596D01*
D68*
X-06041525Y001123774D02*
X-05199566Y001123774D01*
X-05199566Y000916815D01*
X-06042135Y000916815D01*
X-06041525Y001123774D01*
D68*
X-04399999Y001000000D02*
X-04399999Y001000000D01*
X-03800000Y000400001D01*
X-03800000Y001599999D01*
X-04399999Y001000000D01*
D68*
X-12149009Y-02298000D02*
X-11950991Y-02298000D01*
X-11950991Y-03089997D01*
X-12149009Y-03089997D01*
X-12149009Y-02298000D01*
D68*
X-12149009Y-08502000D02*
X-11950991Y-08502000D01*
X-11950991Y-07710003D01*
X-12149009Y-07710003D01*
X-12149009Y-08502000D01*
D68*
X-12709994Y-08210002D02*
X-11390006Y-08210002D01*
X-11390006Y-08012009D01*
X-12709994Y-08012009D01*
X-12709994Y-08210002D01*
D68*
X-08650898Y014965000D02*
X-08650898Y016245008D01*
X-08458900Y016245008D01*
X-08458900Y014965000D01*
X-08650898Y014965000D01*
D68*
X-08904898Y015473000D02*
X-08904898Y015665024D01*
X-08136904Y015665024D01*
X-08136904Y015473000D01*
X-08904898Y015473000D01*
D68*
X-05094898Y015473000D02*
X-05094898Y015665024D01*
X-05862893Y015665024D01*
X-05862893Y015473000D01*
X-05094898Y015473000D01*
D69*
X-12050000Y-07035024D02*
X-12050000Y-06435024D01*
D69*
X-11750000Y-06735024D02*
X-12350000Y-06735024D01*
D69*
X-12050000Y-04364976D02*
X-12050000Y-03764976D01*
M02*