%TF.GenerationSoftware,tscircuit,circuit-json-to-gerber,0.0.111*%
%TF.CreationDate,2026-10-07T23:53:09.584Z*%
%TF.SameCoordinates,Original*%
%TF.FileFunction,Soldermask,Top*%
%TF.FilePolarity,Negative*%
%FSLAX46Y46*%
%MOMM*%
G04 Gerber Fmt 4.6, Leading zero omitted, Abs format (unit mm)*
G04 Created by tscircuit (builder) date 2026-10-07T23:53:09.584Z*
G01*
%LPD*%
G75*
G04 APERTURE MACROS START*
%AMHORZPILL*
0 Horizontal pill (stadium) shape macro*
0 Parameters:*
0 $1 = Total width*
0 $2 = Total height*
0 $3 = Circle diameter (equal to height)*
0 $4 = Circle center offset
0 21 = Center Line(Exposure, Width, Height, Center X, Center Y, Rotation)*
0 1 = Circle(Exposure, Diameter, Center X, Center Y, Rotation)*
21,1,$1-$3,$2,0.0,0.0,0.0*
1,1,$3,0.0-$4,0.0*
1,1,$3,$4,0.0*%
%AMVERTPILL*
0 Vertical pill (stadium) shape macro*
0 Parameters:*
0 $1 = Total width*
0 $2 = Total height*
0 $3 = Circle diameter (equal to width)*
0 $4 = Circle center offset
0 21 = Center Line(Exposure, Width, Height, Center X, Center Y, Rotation)*
21,1,$1,$2-$3,0.0,0.0,0.0*
1,1,$3,0.0,0.0-$4*
1,1,$3,0.0,$4*%
%AMROUNDRECT*
0 Rectangle with rounded corners*
0 $1 Corner radius*
0 $2 $3 $4 $5 $6 $7 $8 $9 X,Y Position of each corner*
0 Polygon box body*
4,1,4,$2,$3,$4,$5,$6,$7,$8,$9,$2,$3,0*
0 Circles for rounded corners*
1,1,$1+$1,$2,$3*
1,1,$1+$1,$4,$5*
1,1,$1+$1,$6,$7*
1,1,$1+$1,$8,$9*
0 Rectangles between the rounded corners*
20,1,$1+$1,$2,$3,$4,$5,0*
20,1,$1+$1,$4,$5,$6,$7,0*
20,1,$1+$1,$6,$7,$8,$9,0*
20,1,$1+$1,$8,$9,$2,$3,0*%
G04 APERTURE MACROS END*
G04 aperture START LIST*
%ADD10C,0.450000*%
%ADD11C,0.252000*%
%ADD12C,0.260000*%
%ADD13C,0.309000*%
%ADD14C,0.178000*%
%ADD15C,0.448000*%
%ADD16C,0.160000*%
%ADD17C,0.180000*%
%ADD18C,0.437000*%
%ADD19C,0.398000*%
%ADD20C,0.237000*%
%ADD21C,0.247000*%
%ADD22C,0.356000*%
%ADD23C,0.241000*%
%ADD24C,0.230000*%
%ADD25C,0.427000*%
%ADD26C,0.407000*%
%ADD27C,0.242000*%
%ADD28C,0.228000*%
%ADD29C,0.419000*%
%ADD30C,0.199000*%
%ADD31C,0.259000*%
%ADD32C,0.277000*%
%ADD33C,0.299000*%
%ADD34C,0.205000*%
%ADD35C,0.385000*%
%ADD36C,0.298000*%
%ADD37C,0.600000*%
%ADD38C,0.300000*%
%ADD39C,0.502000*%
%ADD40C,0.400000*%
%ADD41C,0.332000*%
%ADD42C,0.414000*%
%ADD43C,0.426000*%
%ADD44C,0.412000*%
%ADD45C,0.265000*%
%ADD46C,0.231000*%
%ADD47C,0.269000*%
%ADD48C,0.215000*%
%ADD49C,0.280000*%
%ADD50C,0.210000*%
%ADD51C,0.236000*%
%ADD52C,0.209000*%
%ADD53C,0.233000*%
%ADD54C,0.173000*%
%ADD55C,0.196000*%
%ADD56C,0.229000*%
%ADD57C,0.200000*%
%ADD58C,0.226000*%
%ADD59C,0.336000*%
%ADD60C,0.335000*%
%ADD61C,0.375000*%
%ADD62C,0.324000*%
%ADD63C,0.346000*%
%ADD64C,0.410000*%
%ADD65C,0.316000*%
%ADD66C,0.303000*%
%ADD67C,0.420000*%
%ADD68C,3.200000*%
%ADD69C,0.100000*%
%ADD70C,0.599999*%
%ADD71VERTPILL,1.199998X1.799996X1.199998X0.299999*%
%ADD72VERTPILL,1.199998X1.999996X1.199998X0.399999*%
%ADD73R,1.299997X0.299999*%
%ADD74R,0.909998X0.210000*%
%ADD75C,0.090000*%
%ADD76R,1.499997X0.599999*%
%ADD77R,1.049998X0.419999*%
%ADD78R,2.099996X3.299993*%
%ADD79R,1.469997X2.309995*%
%ADD80R,0.806475X0.864006*%
%ADD81R,0.564533X0.604804*%
%ADD82R,0.799998X0.899998*%
%ADD83R,0.559999X0.629999*%
%ADD84R,3.099994X3.099994*%
%ADD85R,2.169996X2.169996*%
%ADD86R,0.200000X0.850011*%
%ADD87R,0.140000X0.595008*%
%ADD88R,0.850011X0.200000*%
%ADD89R,0.595008X0.140000*%
%ADD90R,0.499999X0.540004*%
%ADD91R,0.349999X0.378003*%
%ADD92R,0.540004X0.499999*%
%ADD93R,0.378003X0.349999*%
%ADD94R,0.299999X0.699999*%
%ADD95R,0.210000X0.489999*%
%ADD96R,1.799996X0.399999*%
%ADD97R,1.259997X0.279999*%
%ADD98R,0.565658X0.540004*%
%ADD99R,0.395961X0.378003*%
%ADD100R,1.000000X1.500000*%
%ADD101R,0.700000X1.050000*%
%ADD102R,1.399997X1.199998*%
%ADD103R,0.979998X0.839998*%
%ADD104R,0.540004X0.565658*%
%ADD105R,0.378003X0.395961*%
%ADD106R,0.550012X1.099998*%
%ADD107R,0.385008X0.769998*%
%ADD108R,1.399997X4.199992*%
%ADD109R,0.979998X2.939994*%
%ADD110R,1.727987X1.485011*%
%ADD111R,1.209591X1.039508*%
%ADD112R,1.410005X1.350010*%
%ADD113R,0.987003X0.945007*%
%ADD114R,1.199998X0.950011*%
%ADD115R,0.839998X0.665008*%
%ADD116R,3.199994X3.199994*%
%ADD117R,2.239996X2.239996*%
%ADD118C,0.280010*%
%ADD119R,0.899998X0.799998*%
%ADD120R,0.629999X0.559999*%
%ADD121R,1.350010X1.410005*%
%ADD122R,0.945007X0.987003*%
%ADD123R,1.199998X3.499993*%
%ADD124R,0.839998X2.449995*%
%ADD125R,1.377010X1.132535*%
%ADD126R,0.963907X0.792775*%
%ADD127R,1.132535X1.377010*%
%ADD128R,0.792775X0.963907*%
%ADD129C,1.700000*%
%ADD130R,1.500000X0.800000*%
%ADD131R,1.050000X0.560000*%
%ADD132R,1.072007X0.532003*%
%ADD133R,0.750405X0.372402*%
%ADD134R,1.299997X1.199998*%
%ADD135R,0.909998X0.839998*%
%ADD136C,0.063000*%
%ADD137C,0.058500*%
%ADD138C,0.500000*%
%ADD139C,0.400000*%
%ADD140C,0.001000*%
%TD*%
G04 aperture END LIST*
D68*
X-13000000Y-13000000D03*
D68*
X-13000000Y013000000D03*
D68*
X013000000Y-13000000D03*
D68*
X013000000Y013000000D03*
D70*
X-11244404Y007399918D03*
D70*
X-11244404Y001600082D03*
%ADD141C,1.199998*%
D141*
X-15224101Y000174888D03*
X-15224101Y000174888D02*
X-14624103Y000174888D01*
X-14624103Y000174888D03*
D141*
X-11144277Y000174888D03*
X-11144277Y000174888D02*
X-10344279Y000174888D01*
X-10344279Y000174888D03*
D141*
X-11144277Y008825112D03*
X-11144277Y008825112D02*
X-10344279Y008825112D01*
X-10344279Y008825112D03*
D141*
X-15224101Y008825112D03*
X-15224101Y008825112D02*
X-14624103Y008825112D01*
X-14624103Y008825112D03*
D73*
X-09975928Y006250060D03*
D73*
X-09975928Y005749934D03*
D73*
X-09975928Y005250062D03*
D73*
X-09975928Y004749936D03*
D73*
X-09975928Y004250064D03*
D73*
X-09975928Y003749938D03*
D73*
X-09975928Y003250320D03*
D73*
X-09975928Y002749940D03*
D140*
G36*
X-10625863Y007399969D02*
X-09325840Y007399969D01*
X-09325840Y007399969D01*
X-09325840Y007699968D01*
X-09325840Y007699968D01*
X-09325993Y007699968D01*
X-09325993Y007699968D01*
X-09325993Y007999942D01*
X-09325993Y007999942D01*
X-10626016Y007999942D01*
X-10626016Y007999942D01*
X-10626016Y007699943D01*
X-10626016Y007699943D01*
X-10625863Y007699943D01*
X-10625863Y007699943D01*
X-10625863Y007399969D01*
X-10625863Y007399969D01*
G37*
D140*
G36*
X-09325840Y001600006D02*
X-10625812Y001600006D01*
X-10625812Y001600006D01*
X-10625812Y001300006D01*
X-10625812Y001300006D01*
X-10625812Y001299981D01*
X-10625812Y001299981D01*
X-10625812Y000999982D01*
X-10625812Y000999982D01*
X-09325840Y000999982D01*
X-09325840Y000999982D01*
X-09325840Y001299981D01*
X-09325840Y001299981D01*
X-09325840Y001300006D01*
X-09325840Y001300006D01*
X-09325840Y001600006D01*
X-09325840Y001600006D01*
G37*
D140*
G36*
X-10625812Y001799828D02*
X-09325840Y001799828D01*
X-09325840Y001799828D01*
X-09325840Y002099827D01*
X-09325840Y002099827D01*
X-09325840Y002099852D01*
X-09325840Y002099852D01*
X-09325840Y002399852D01*
X-09325840Y002399852D01*
X-10625812Y002399852D01*
X-10625812Y002399852D01*
X-10625812Y002099852D01*
X-10625812Y002099852D01*
X-10625812Y002099827D01*
X-10625812Y002099827D01*
X-10625812Y001799828D01*
X-10625812Y001799828D01*
G37*
D140*
G36*
X-10625965Y006599970D02*
X-09325993Y006599970D01*
X-09325993Y006599970D01*
X-09325993Y006899995D01*
X-09325993Y006899995D01*
X-09326018Y006899995D01*
X-09326018Y006899995D01*
X-09326018Y007199944D01*
X-09326018Y007199944D01*
X-10625990Y007199944D01*
X-10625990Y007199944D01*
X-10625990Y006899919D01*
X-10625990Y006899919D01*
X-10625965Y006899919D01*
X-10625965Y006899919D01*
X-10625965Y006599970D01*
X-10625965Y006599970D01*
G37*
D70*
X011244404Y001600082D03*
D70*
X011244404Y007399918D03*
D141*
X015224101Y008825112D03*
X015224101Y008825112D02*
X014624103Y008825112D01*
X014624103Y008825112D03*
D141*
X011144277Y008825112D03*
X011144277Y008825112D02*
X010344279Y008825112D01*
X010344279Y008825112D03*
D141*
X011144277Y000174888D03*
X011144277Y000174888D02*
X010344279Y000174888D01*
X010344279Y000174888D03*
D141*
X015224101Y000174888D03*
X015224101Y000174888D02*
X014624103Y000174888D01*
X014624103Y000174888D03*
D73*
X009975928Y002749940D03*
D73*
X009975928Y003250066D03*
D73*
X009975928Y003749938D03*
D73*
X009975928Y004250064D03*
D73*
X009975928Y004749936D03*
D73*
X009975928Y005250062D03*
D73*
X009975928Y005749680D03*
D73*
X009975928Y006250060D03*
D140*
G36*
X010625863Y001600031D02*
X009325840Y001600031D01*
X009325840Y001600031D01*
X009325840Y001300032D01*
X009325840Y001300032D01*
X009325993Y001300032D01*
X009325993Y001300032D01*
X009325993Y001000058D01*
X009325993Y001000058D01*
X010626016Y001000058D01*
X010626016Y001000058D01*
X010626016Y001300057D01*
X010626016Y001300057D01*
X010625863Y001300057D01*
X010625863Y001300057D01*
X010625863Y001600031D01*
X010625863Y001600031D01*
G37*
D140*
G36*
X009325840Y007399994D02*
X010625812Y007399994D01*
X010625812Y007399994D01*
X010625812Y007699994D01*
X010625812Y007699994D01*
X010625812Y007700019D01*
X010625812Y007700019D01*
X010625812Y008000018D01*
X010625812Y008000018D01*
X009325840Y008000018D01*
X009325840Y008000018D01*
X009325840Y007700019D01*
X009325840Y007700019D01*
X009325840Y007699994D01*
X009325840Y007699994D01*
X009325840Y007399994D01*
X009325840Y007399994D01*
G37*
D140*
G36*
X010625812Y007200172D02*
X009325840Y007200172D01*
X009325840Y007200172D01*
X009325840Y006900173D01*
X009325840Y006900173D01*
X009325840Y006900148D01*
X009325840Y006900148D01*
X009325840Y006600148D01*
X009325840Y006600148D01*
X010625812Y006600148D01*
X010625812Y006600148D01*
X010625812Y006900148D01*
X010625812Y006900148D01*
X010625812Y006900173D01*
X010625812Y006900173D01*
X010625812Y007200172D01*
X010625812Y007200172D01*
G37*
D140*
G36*
X010625965Y002400030D02*
X009325993Y002400030D01*
X009325993Y002400030D01*
X009325993Y002100005D01*
X009325993Y002100005D01*
X009326018Y002100005D01*
X009326018Y002100005D01*
X009326018Y001800056D01*
X009326018Y001800056D01*
X010625990Y001800056D01*
X010625990Y001800056D01*
X010625990Y002100081D01*
X010625990Y002100081D01*
X010625965Y002100081D01*
X010625965Y002100081D01*
X010625965Y002400030D01*
X010625965Y002400030D01*
G37*
D76*
X-00400133Y010199996D03*
D76*
X-00399879Y009199998D03*
D76*
X-00399879Y008200000D03*
D76*
X-00399879Y007200002D03*
D76*
X-00400133Y006200004D03*
D76*
X-06400121Y006200004D03*
D76*
X-06400121Y007200002D03*
D76*
X-06400121Y008200000D03*
D76*
X-06400121Y009199998D03*
D76*
X-06400121Y010199996D03*
D78*
X-03399873Y008200000D03*
D80*
X-07746636Y011700000D03*
D80*
X-09253364Y011700000D03*
D82*
X-04799976Y011700000D03*
D82*
X-06200024Y011700000D03*
D80*
X000253364Y011800000D03*
D80*
X-01253364Y011800000D03*
D84*
X003400000Y000000127D03*
D86*
X000800056Y003425063D03*
D86*
X001199852Y003425063D03*
D86*
X001599902Y003425063D03*
D86*
X001999952Y003425063D03*
D86*
X002400002Y003425063D03*
D86*
X002800052Y003425063D03*
D86*
X003199848Y003425063D03*
D86*
X003599898Y003425063D03*
D86*
X003999948Y003425063D03*
D86*
X004399998Y003425063D03*
D86*
X004800048Y003425063D03*
D86*
X005199844Y003425063D03*
D86*
X005599894Y003425063D03*
D86*
X005999944Y003425063D03*
D88*
X006824936Y002600071D03*
D88*
X006824936Y002200021D03*
D88*
X006824936Y001799971D03*
D88*
X006824936Y001399921D03*
D88*
X006824936Y001000125D03*
D88*
X006824936Y000600075D03*
D88*
X006824936Y000200025D03*
D88*
X006824936Y-00200025D03*
D88*
X006824936Y-00600075D03*
D88*
X006824936Y-00999871D03*
D88*
X006824936Y-01399921D03*
D88*
X006824936Y-01799971D03*
D88*
X006824936Y-02200021D03*
D88*
X006824936Y-02600071D03*
D86*
X005999944Y-03425063D03*
D86*
X005599894Y-03425063D03*
D86*
X005199844Y-03425063D03*
D86*
X004800048Y-03425063D03*
D86*
X004399998Y-03425063D03*
D86*
X003999948Y-03425063D03*
D86*
X003599898Y-03425063D03*
D86*
X003199848Y-03425063D03*
D86*
X002800052Y-03425063D03*
D86*
X002400002Y-03425063D03*
D86*
X001999952Y-03425063D03*
D86*
X001599902Y-03425063D03*
D86*
X001199852Y-03425063D03*
D86*
X000800056Y-03425063D03*
D88*
X-00024936Y-02600071D03*
D88*
X-00024936Y-02200021D03*
D88*
X-00024936Y-01799971D03*
D88*
X-00024936Y-01399921D03*
D88*
X-00024936Y-00999871D03*
D88*
X-00024936Y-00600075D03*
D88*
X-00024936Y-00200025D03*
D88*
X-00024936Y000200025D03*
D88*
X-00024936Y000600075D03*
D88*
X-00024936Y001000125D03*
D88*
X-00024936Y001399921D03*
D88*
X-00024936Y001799971D03*
D88*
X-00024936Y002200021D03*
D88*
X-00024936Y002600071D03*
D90*
X-00720116Y004800000D03*
D90*
X000120116Y004800000D03*
D92*
X-04100000Y-00779884D03*
D92*
X-04100000Y-01620116D03*
D92*
X004000000Y-05820116D03*
D92*
X004000000Y-04979884D03*
D92*
X008250000Y-00779884D03*
D92*
X008250000Y-01620116D03*
D92*
X008250000Y003020116D03*
D92*
X008250000Y002179884D03*
D92*
X003500000Y005720116D03*
D92*
X003500000Y004879884D03*
D92*
X005200000Y-04979884D03*
D92*
X005200000Y-05820116D03*
D92*
X002400000Y005720116D03*
D92*
X002400000Y004879884D03*
D92*
X004300000Y007820116D03*
D92*
X004300000Y006979884D03*
D92*
X007100000Y005720116D03*
D92*
X007100000Y004879884D03*
D92*
X006500000Y007820116D03*
D92*
X006500000Y006979884D03*
D92*
X005400000Y007820116D03*
D92*
X005400000Y006979884D03*
D94*
X001249970Y007126800D03*
D94*
X001750350Y007126800D03*
D94*
X002250222Y007126800D03*
D94*
X002749840Y007126800D03*
D94*
X002749840Y010073200D03*
D94*
X002250222Y010073200D03*
D94*
X001750350Y010073200D03*
D94*
X001249970Y010073200D03*
D96*
X002000032Y008600000D03*
D90*
X002420116Y011400000D03*
D90*
X001579884Y011400000D03*
D98*
X002432816Y012600000D03*
D98*
X001567184Y012600000D03*
D98*
X005932816Y012900000D03*
D98*
X005067184Y012900000D03*
D100*
X007450000Y015500000D03*
D100*
X008950000Y015500000D03*
D102*
X-00000074Y-07010011D03*
D102*
X002200074Y-07010011D03*
D102*
X002200074Y-05309989D03*
D102*
X-00000074Y-05309989D03*
D98*
X004732816Y-07000000D03*
D98*
X003867184Y-07000000D03*
D92*
X-01550000Y-06579884D03*
D92*
X-01550000Y-07420116D03*
D92*
X005500000Y-08079884D03*
D92*
X005500000Y-08920116D03*
D104*
X006900000Y-05067184D03*
D104*
X006900000Y-05932816D03*
D104*
X005900000Y005732816D03*
D104*
X005900000Y004867184D03*
D104*
X004700000Y005732816D03*
D104*
X004700000Y004867184D03*
D80*
X009553364Y012000000D03*
D80*
X008046636Y012000000D03*
D98*
X013432816Y016400000D03*
D98*
X012567184Y016400000D03*
D80*
X005453364Y015700000D03*
D80*
X003946636Y015700000D03*
D80*
X015453364Y-01650000D03*
D80*
X013946636Y-01650000D03*
D80*
X000253364Y014000000D03*
D80*
X-01253364Y014000000D03*
D80*
X003753364Y014100000D03*
D80*
X002246636Y014100000D03*
D90*
X012420116Y-03800000D03*
D90*
X011579884Y-03800000D03*
D106*
X-05650040Y-04049896D03*
D106*
X-06600000Y-04049896D03*
D106*
X-07549960Y-04049896D03*
D106*
X-07549960Y-01650104D03*
D106*
X-06600000Y-01650104D03*
D106*
X-05650040Y-01650104D03*
D108*
X-07400048Y-07250000D03*
D108*
X-04599952Y-07250000D03*
D92*
X-04200000Y-02879884D03*
D92*
X-04200000Y-03720116D03*
D110*
X-07800000Y003492580D03*
D110*
X-07800000Y000307420D03*
D112*
X-05400002Y-10600000D03*
D112*
X-07399998Y-10600000D03*
D112*
X-07000002Y-12700000D03*
D112*
X-08999998Y-12700000D03*
D114*
X-02299978Y003800000D03*
D114*
X-05700022Y003800000D03*
D114*
X-02299978Y001000000D03*
D114*
X-05700022Y001000000D03*
D116*
X-00000027Y-11499973D03*
D118*
X-01501167Y-08690111D03*
X-01501167Y-08690111D02*
X-01501167Y-09310099D01*
X-01501167Y-09310099D03*
D118*
X-01000787Y-08690111D03*
X-01000787Y-08690111D02*
X-01000787Y-09310099D01*
X-01000787Y-09310099D03*
D118*
X-00500407Y-08690111D03*
X-00500407Y-08690111D02*
X-00500407Y-09310099D01*
X-00500407Y-09310099D03*
D118*
X-00000027Y-08690111D03*
X-00000027Y-08690111D02*
X-00000027Y-09310099D01*
X-00000027Y-09310099D03*
D118*
X000500353Y-08690111D03*
X000500353Y-08690111D02*
X000500353Y-09310099D01*
X000500353Y-09310099D03*
D118*
X001000733Y-08690111D03*
X001000733Y-08690111D02*
X001000733Y-09310099D01*
X001000733Y-09310099D03*
D118*
X001501113Y-08690111D03*
X001501113Y-08690111D02*
X001501113Y-09310099D01*
X001501113Y-09310099D03*
D118*
X002190101Y-09998833D03*
X002190101Y-09998833D02*
X002810089Y-09998833D01*
X002810089Y-09998833D03*
D118*
X002190101Y-10499213D03*
X002190101Y-10499213D02*
X002810089Y-10499213D01*
X002810089Y-10499213D03*
D118*
X002190101Y-10999593D03*
X002190101Y-10999593D02*
X002810089Y-10999593D01*
X002810089Y-10999593D03*
D118*
X002190101Y-11499973D03*
X002190101Y-11499973D02*
X002810089Y-11499973D01*
X002810089Y-11499973D03*
D118*
X002190101Y-12000353D03*
X002190101Y-12000353D02*
X002810089Y-12000353D01*
X002810089Y-12000353D03*
D118*
X002190101Y-12500733D03*
X002190101Y-12500733D02*
X002810089Y-12500733D01*
X002810089Y-12500733D03*
D118*
X002190101Y-13001113D03*
X002190101Y-13001113D02*
X002810089Y-13001113D01*
X002810089Y-13001113D03*
D118*
X001501113Y-13690101D03*
X001501113Y-13690101D02*
X001501113Y-14310089D01*
X001501113Y-14310089D03*
D118*
X001000733Y-13690101D03*
X001000733Y-13690101D02*
X001000733Y-14310089D01*
X001000733Y-14310089D03*
D118*
X000500353Y-13690101D03*
X000500353Y-13690101D02*
X000500353Y-14310089D01*
X000500353Y-14310089D03*
D118*
X-00000027Y-13690101D03*
X-00000027Y-13690101D02*
X-00000027Y-14310089D01*
X-00000027Y-14310089D03*
D118*
X-00500407Y-13690101D03*
X-00500407Y-13690101D02*
X-00500407Y-14310089D01*
X-00500407Y-14310089D03*
D118*
X-01000787Y-13690101D03*
X-01000787Y-13690101D02*
X-01000787Y-14310089D01*
X-01000787Y-14310089D03*
D118*
X-01501167Y-13690101D03*
X-01501167Y-13690101D02*
X-01501167Y-14310089D01*
X-01501167Y-14310089D03*
D118*
X-02809889Y-13001113D03*
X-02809889Y-13001113D02*
X-02189901Y-13001113D01*
X-02189901Y-13001113D03*
D118*
X-02809889Y-12500733D03*
X-02809889Y-12500733D02*
X-02189901Y-12500733D01*
X-02189901Y-12500733D03*
D118*
X-02809889Y-12000353D03*
X-02809889Y-12000353D02*
X-02189901Y-12000353D01*
X-02189901Y-12000353D03*
D118*
X-02809889Y-11499973D03*
X-02809889Y-11499973D02*
X-02189901Y-11499973D01*
X-02189901Y-11499973D03*
D118*
X-02809889Y-10999593D03*
X-02809889Y-10999593D02*
X-02189901Y-10999593D01*
X-02189901Y-10999593D03*
D118*
X-02809889Y-10499213D03*
X-02809889Y-10499213D02*
X-02189901Y-10499213D01*
X-02189901Y-10499213D03*
D118*
X-02809889Y-09998833D03*
X-02809889Y-09998833D02*
X-02189901Y-09998833D01*
X-02189901Y-09998833D03*
D82*
X-03899976Y-12300000D03*
D82*
X-05300024Y-12300000D03*
D82*
X-06399976Y-16500000D03*
D82*
X-07800024Y-16500000D03*
D119*
X-05000000Y-14099976D03*
D119*
X-05000000Y-15500024D03*
D82*
X005600024Y-10200000D03*
D82*
X004199976Y-10200000D03*
D121*
X-02600000Y-02900002D03*
D121*
X-02600000Y-04899998D03*
D123*
X-12050000Y-08070048D03*
D123*
X-12050000Y-02729952D03*
D125*
X006800000Y-11800002D03*
D125*
X006800000Y-13799998D03*
D127*
X-07000002Y-14700000D03*
D127*
X-08999998Y-14700000D03*
D80*
X011653364Y-05500000D03*
D80*
X010146636Y-05500000D03*
D80*
X012253364Y-08200000D03*
D80*
X010746636Y-08200000D03*
D82*
X009400024Y-10000000D03*
D82*
X007999976Y-10000000D03*
D98*
X-02332816Y-00700000D03*
D98*
X-01467184Y-00700000D03*
D80*
X-05246636Y013500000D03*
D80*
X-06753364Y013500000D03*
D129*
X-03000000Y-16000000D03*
D129*
X-01000000Y-16000000D03*
D129*
X001000000Y-16000000D03*
D129*
X003000000Y-16000000D03*
D130*
X015500000Y-08500000D03*
D130*
X015500000Y-07400000D03*
D130*
X015500000Y-06300000D03*
D130*
X015500000Y-05200000D03*
D130*
X015500000Y-04100000D03*
D132*
X004150904Y011449960D03*
D132*
X004150904Y010500000D03*
D132*
X004150904Y009550040D03*
D132*
X006449096Y009550040D03*
D132*
X006449096Y010500000D03*
D132*
X006449096Y011449960D03*
D134*
X-05350016Y015600000D03*
D134*
X-08649984Y015600000D03*
M02*